<svg id="Layer_1" height="512" viewBox="0 0 512 512" width="512" xmlns="http://www.w3.org/2000/svg" data-name="Layer 1"><path d="m330 58.673a394.314 394.314 0 0 1 -74-42.71 394.291 394.291 0 0 1 -74 42.71v72.475c0 26.53 12.3 49.042 36.569 66.91a139.779 139.779 0 0 0 36.077 18.886 146.981 146.981 0 0 0 37.471-18.932c25.137-17.872 37.883-40.368 37.883-66.864zm-35.273 36.687-49.5 49.5a6 6 0 0 1 -8.485 0l-19.471-19.471a6 6 0 0 1 8.485-8.486l15.229 15.229 45.255-45.255a6 6 0 1 1 8.485 8.485z"/><path d="m93.515 79.668a6 6 0 0 1 0 12h-23.05a23.42 23.42 0 0 0 22.6 17.382h41.135a6 6 0 0 1 0 12h-27a23.42 23.42 0 0 0 22.6 17.381h38.458l-6.162-36.966a46.737 46.737 0 0 0 -46.247-39.177h-86.069a23.424 23.424 0 0 0 22.6 17.38z"/><path d="m349.915 101.465-6.162 36.966h38.458a23.42 23.42 0 0 0 22.6-17.381h-27a6 6 0 0 1 0-12h41.134a23.42 23.42 0 0 0 22.6-17.382h-23.05a6 6 0 0 1 0-12h41.134a23.424 23.424 0 0 0 22.6-17.38h-86.067a46.737 46.737 0 0 0 -46.247 39.177z"/><path d="m251.893 265.308a6 6 0 0 0 -6 6v18.992a6 6 0 0 0 12 0v-18.992a6 6 0 0 0 -6-6z"/><path d="m258.5 312.423a6 6 0 0 0 -12 0v7.614a6 6 0 0 0 12 0z"/><path d="m252.5 456.777a6 6 0 0 0 -6 6v27.26a6 6 0 0 0 12 0v-27.26a6 6 0 0 0 -6-6z"/><path d="m258.5 342.423a6 6 0 0 0 -12 0v98.807a6 6 0 0 0 12 0z"/><path d="m200.715 326.3a6 6 0 0 0 6-6v-81.492a6 6 0 0 0 -12 0v81.492a6 6 0 0 0 6 6z"/><path d="m207.321 342.423a6 6 0 0 0 -12 0v17.614a6 6 0 0 0 12 0z"/><path d="m201.321 446.037a6 6 0 0 0 6-6v-57.614a6 6 0 0 0 -12 0v57.614a6 6 0 0 0 6 6z"/><path d="m149.538 226.3a6 6 0 0 0 6-6v-21.492a6 6 0 0 0 -12 0v21.492a6 6 0 0 0 6 6z"/><path d="m156.144 242.423a6 6 0 0 0 -12 0v117.614a6 6 0 0 0 12 0z"/><path d="m150.144 406.037a6 6 0 0 0 6-6v-17.614a6 6 0 0 0 -12 0v17.614a6 6 0 0 0 6 6z"/><path d="m303.07 256.3a6 6 0 0 0 6-6v-11.492a6 6 0 1 0 -12 0v11.492a6 6 0 0 0 6 6z"/><path d="m303.676 266.423a6 6 0 0 0 -6 6v87.614a6 6 0 0 0 12 0v-87.614a6 6 0 0 0 -6-6z"/><path d="m303.676 446.037a6 6 0 0 0 6-6v-57.614a6 6 0 0 0 -12 0v57.614a6 6 0 0 0 6 6z"/><path d="m354.248 192.808a6 6 0 0 0 -6 6v111.492a6 6 0 0 0 12 0v-111.492a6 6 0 0 0 -6-6z"/><path d="m360.854 332.423a6 6 0 0 0 -12 0v27.614a6 6 0 0 0 12 0z"/><path d="m354.854 376.423a6 6 0 0 0 -6 6v17.614a6 6 0 0 0 12 0v-17.614a6 6 0 0 0 -6-6z"/></svg>