<svg id="SvgjsSvg1001" width="288" height="288" xmlns="http://www.w3.org/2000/svg" version="1.1" xmlns:xlink="http://www.w3.org/1999/xlink" xmlns:svgjs="http://svgjs.com/svgjs"><defs id="SvgjsDefs1002"></defs><g id="SvgjsG1008" transform="matrix(1,0,0,1,0,0)"><svg xmlns="http://www.w3.org/2000/svg" width="288" height="288" fill="none" viewBox="0 0 368 298"><path fill="#73cb6d" stroke="#ffffff" stroke-linecap="round" stroke-linejoin="round" stroke-miterlimit="10" stroke-width="2" d="M351.678 7.08279V133.035C351.678 140.587 351.135 148.049 350.141 155.331C339.196 234.927 270.363 296.071 187.511 294.986C153.095 294.533 121.437 283.182 95.5232 264.278C54.3684 234.248 27.6855 185.224 27.6855 130.593V67.7296C27.6855 65.5136 29.4946 63.7046 31.7106 63.7046H135.728V37.3836C135.728 35.1676 137.537 33.3586 139.753 33.3586H243.726V7.08279C243.726 4.86676 245.535 3.05775 247.751 3.05775H347.698C349.914 3.05775 351.678 4.86676 351.678 7.08279Z" class="color45E0A8 svgShape colorStrokefff svgStroke"></path><path stroke="#ffffff" stroke-linecap="round" stroke-linejoin="round" stroke-miterlimit="10" stroke-width="1.2" d="M196.466 212.133C196.692 204.943 200.265 197.888 206.008 193.455C211.707 189.069 219.44 187.395 226.495 189.023" fill="#50C44A" class="color000 svgShape colorStroke000 svgStroke"></path><path stroke="#ffffff" stroke-linecap="round" stroke-linejoin="round" stroke-miterlimit="10" stroke-width="1.2" d="M210.579 260.388C204.202 260.027 197.735 263.012 193.846 268.077C189.956 273.142 188.735 280.152 190.725 286.212C185.615 282.504 178.334 282.051 172.726 285.036C169.423 286.821 166.811 289.75 165.276 293.15" fill="#50C44A" class="color000 svgShape colorStrokefff svgStroke"></path><path fill="#50C44A" stroke="#ffffff" stroke-linecap="round" stroke-linejoin="round" stroke-miterlimit="10" stroke-width="1.2" d="M235.181 154.924L217.769 154.019C217.769 154.019 206.599 202.184 251.959 211.998L263.175 213.128L268.059 196.35L262.723 187.576C229.302 181.652 235.181 154.924 235.181 154.924Z" class="color000 svgShape colorStroke000 svgStroke"></path><path fill="#73cb6d" d="M239.928 154.743L219.938 154.969C220.481 154.2 220.707 137.06 220.707 137.06" class="color45E0A8 svgShape"></path><path stroke="#ffffff" stroke-linecap="round" stroke-linejoin="round" stroke-miterlimit="10" stroke-width="1.2" d="M239.928 154.743L219.938 154.969C220.481 154.2 220.707 137.06 220.707 137.06" fill="#50C44A" class="color000 svgShape colorStroke000 svgStroke"></path><path fill="#ffffff" stroke="#ffffff" stroke-linecap="round" stroke-linejoin="round" stroke-miterlimit="10" stroke-width="1.2" d="M263.402 212.495L263.221 213.128L252.005 211.998C206.644 202.184 217.815 154.019 217.815 154.019L224.327 154.381C223.423 158.723 215.509 202.681 258.563 212.043L263.402 212.495Z" class="colorfff svgShape colorStroke000 svgStroke"></path><path fill="#73cb6d" d="M292.708 158.225L294.969 172.742C294.969 172.742 288.728 183.958 277.558 180.385C272.809 178.893 274.889 170.572 274.889 170.572L275.975 162.567L292.708 158.225Z" class="color45E0A8 svgShape"></path><path fill="#73cb6d" d="M273.443 140.316C266.614 151.08 266.795 162.702 271.182 165.642C274.71 168.039 280.634 165.235 282.172 164.466C284.931 162.115 287.689 159.763 290.448 157.411L285.88 139.954L273.443 140.316Z" class="color45E0A8 svgShape"></path><path fill="#ffffff" d="M273.443 140.316C266.614 151.08 266.795 162.702 271.182 165.642C271.725 166.004 272.358 166.275 272.991 166.411C267.112 161.979 273.669 143.482 275.931 140.271L273.443 140.316Z" class="colorfff svgShape"></path><path stroke="#ffffff" stroke-linecap="round" stroke-linejoin="round" stroke-miterlimit="10" stroke-width="1.2" d="M294.971 172.742L290.675 158.044L297.097 137.829L273.489 140.316C266.66 151.08 266.841 162.702 271.228 165.642C274.756 168.039 281.268 165.506 283.936 163.607" fill="#50C44A" class="color000 svgShape colorStroke000 svgStroke"></path><path fill="#50C44A" stroke="#ffffff" stroke-linecap="round" stroke-linejoin="round" stroke-miterlimit="10" stroke-width="1.2" d="M301.799 145.472C302.884 144.703 307.949 137.105 305.959 134.708C304.015 137.015 302.025 137.648 301.211 136.969C300.668 136.517 301.572 134.527 304.015 133.035C302.386 131.995 282.533 128.331 273.442 140.316C273.488 141.266 273.669 142.487 274.573 143.346C276.563 145.2 279.729 143.301 281.809 144.522C284.387 146.014 281.854 152.075 284.115 153.115C284.613 152.436 285.291 151.848 285.924 151.396C286.784 150.763 288.005 150.22 289.09 150.582C289.678 150.808 290.221 151.215 290.492 151.803C290.809 152.436 290.809 153.069 290.718 153.748C290.583 154.788 289.995 155.783 289.407 156.642C289 157.23 288.593 157.773 288.095 158.316C288.819 159.582 291.487 163.562 292.256 163.924C294.201 163.109 297.728 160.441 301.346 155.828C305.552 150.401 306.683 144.612 305.778 142.532C305.688 142.984 303.969 145.607 301.799 145.472Z" class="color000 svgShape colorStroke000 svgStroke"></path><path stroke="#ffffff" stroke-linecap="round" stroke-linejoin="round" stroke-miterlimit="10" stroke-width="1.2" d="M275.475 145.562L254.672 130.954C254.672 130.954 263.265 135.025 265.435 141.944C266.611 145.788 261.908 154.291 261.998 154.381C262.224 154.517 255.848 157.773 255.848 157.773L274.254 157.185C274.3 157.185 274.345 157.185 274.39 157.185H274.435C276.154 157.049 277.782 155.105 278.234 152.346C278.732 149.09 277.556 147.19 275.475 145.562Z" fill="#50C44A" class="color000 svgShape colorStroke000 svgStroke"></path><path fill="#ffffff" stroke="#ffffff" stroke-linecap="round" stroke-linejoin="round" stroke-miterlimit="10" stroke-width="1.2" d="M240.742 142.668C240.019 149.587 242.687 155.376 246.803 156.326C245.943 156.778 245.039 157.004 244.134 157.004C239.431 156.959 236.31 150.356 237.17 142.261C238.029 134.165 242.506 127.653 247.21 127.743C248.566 127.743 249.833 128.331 250.873 129.372C250.782 129.372 250.692 129.372 250.602 129.372C245.943 129.145 241.511 135.16 240.742 142.668Z" class="colorfff svgShape colorStroke000 svgStroke"></path><path fill="#50C44A" stroke="#ffffff" stroke-linecap="round" stroke-linejoin="round" stroke-miterlimit="10" stroke-width="1.2" d="M254.176 142.442C253.498 148.954 250.422 154.471 246.804 156.326C242.689 155.376 240.021 149.587 240.744 142.668C241.513 135.16 245.9 129.191 250.603 129.281C250.694 129.281 250.784 129.281 250.875 129.281C253.407 131.723 254.764 136.698 254.176 142.442Z" class="color000 svgShape colorStroke000 svgStroke"></path><path stroke="#ffffff" stroke-linecap="round" stroke-linejoin="round" stroke-miterlimit="10" stroke-width="1.2" d="M254.673 130.909C256.889 133.487 257.793 137.874 257.251 143.21C256.572 149.723 253.497 155.24 249.879 157.094" fill="#50C44A" class="color000 svgShape colorStroke000 svgStroke"></path><path fill="#50C44A" stroke="#ffffff" stroke-linecap="round" stroke-linejoin="round" stroke-miterlimit="10" stroke-width="1.2" d="M230.615 140.406C229.846 147.597 226.228 153.522 222.158 154.743C219.037 152.708 217.228 147.235 217.907 140.859C218.675 133.668 222.293 127.743 226.364 126.522C229.484 128.557 231.293 134.03 230.615 140.406Z" class="color000 svgShape colorStroke000 svgStroke"></path><path stroke="#ffffff" stroke-linecap="round" stroke-linejoin="round" stroke-miterlimit="10" stroke-width="1.2" d="M232.062 128.648C234.278 131.226 235.454 135.929 234.911 141.266 234.233 147.823 231.157 153.341 227.494 155.15M225.546 126.07L240.651 132.04M244.134 156.959L267.425 158.225M249.606 128.331L277.556 142.306" fill="#50C44A" class="color000 svgShape colorStroke000 svgStroke"></path><path fill="#73cb6d" d="M266.656 133.035L266.566 133.125C264.621 131.633 262.677 131.904 262.677 131.904L261.908 132.311C260.551 131.768 259.466 131.904 259.466 131.904L257.476 130.909C261.365 139.909 257.295 148.773 255.802 157.682C255.486 159.446 255.214 161.21 254.988 162.883C254.988 162.883 257.069 167.315 257.295 167.813C257.521 168.31 267.968 168.129 268.556 167.813C269.144 167.496 272.355 161.888 272.355 161.888C272.445 157.954 272.897 154.788 273.169 152.934C273.576 150.627 273.757 148.275 273.711 145.879C273.531 133.035 266.656 133.035 266.656 133.035Z" class="color45E0A8 svgShape"></path><path fill="#ffffff" d="M262.813 139.954C262.813 138.055 262.587 136.11 262.044 134.21C261.818 134.12 261.547 133.939 261.456 133.713C261.411 133.623 261.366 133.532 261.275 133.442C261.004 133.17 260.733 132.899 260.416 132.673C260.009 132.356 259.602 132.04 259.195 131.723L257.612 131.859C258.788 134.618 259.15 136.427 259.15 139.185C259.15 145.381 256.888 151.532 255.848 157.682C255.532 159.446 255.26 161.21 255.034 162.883C255.034 162.883 257.16 167.315 257.341 167.813C257.431 167.994 258.878 168.084 260.733 168.084C260.145 166.818 258.652 163.652 258.652 163.652C258.878 161.979 259.15 160.215 259.466 158.451C260.506 152.301 262.813 146.15 262.813 139.954Z" class="colorfff svgShape"></path><path fill="#50C44A" stroke="#ffffff" stroke-linecap="round" stroke-linejoin="round" stroke-miterlimit="10" stroke-width="1.2" d="M294.063 169.667C294.063 169.667 285.154 177.672 279.41 176.496C277.647 176.134 275.205 174.144 274.752 171.521L266.205 171.702C262.451 174.099 260.28 178.305 259.104 183.596C256.21 196.531 253.587 235.424 253.587 235.424L280.858 229.274L321.786 186.717C313.736 172.742 294.063 169.667 294.063 169.667Z" class="color000 svgShape colorStroke000 svgStroke"></path><path fill="#50C44A" d="M258.471 183.596C255.576 196.531 252.953 235.424 252.953 235.424Z" class="color000 svgShape"></path><path stroke="#8ecd8a" stroke-linecap="round" stroke-linejoin="round" stroke-miterlimit="10" stroke-width="1.2" d="M258.471 183.596C255.576 196.531 252.953 235.424 252.953 235.424" fill="#50C44A" class="color000 svgShape colorStroke45E0A8 svgStroke"></path><path fill="#ffffff" d="M245.627 133.939C246.17 133.623 246.758 133.351 247.391 133.351 248.024 133.351 248.702 133.668 248.883 134.211 249.019 134.618 248.883 135.115 248.612 135.477 248.341 135.839 247.979 136.155 247.662 136.517 246.984 137.241 246.577 138.055 246.305 138.959 246.079 139.728 246.17 140.768 245.582 141.447 244.813 142.261 244.18 141.989 243.637 141.13 242.19 138.778 243.23 135.477 245.627 133.939zM248.207 132.311C247.71 132.04 248.207 131.316 248.705 131.09 249.202 130.864 249.88 130.954 250.378 131.226 250.83 131.452 251.192 131.814 251.373 132.221 251.554 132.673 251.463 133.17 251.101 133.532 250.74 133.849 250.106 133.939 249.699 133.623 249.428 133.397 249.338 133.08 249.157 132.809 249.021 132.582 248.433 132.447 248.207 132.311zM224.19 130.638C223.692 130.547 223.919 129.778 224.28 129.462 224.642 129.145 225.23 129.055 225.728 129.1 226.18 129.191 226.587 129.371 226.858 129.688 227.129 130.005 227.22 130.502 226.994 130.864 226.768 131.271 226.225 131.497 225.818 131.316 225.547 131.226 225.366 130.954 225.14 130.773 224.913 130.592 224.461 130.683 224.19 130.638zM222.653 132.447C223.196 132.13 223.784 131.859 224.417 131.859 225.05 131.859 225.729 132.175 225.91 132.718 226.045 133.125 225.91 133.623 225.638 133.984 225.367 134.346 225.005 134.663 224.689 135.025 224.01 135.748 223.603 136.562 223.332 137.467 223.106 138.236 223.196 139.276 222.608 139.954 221.839 140.768 221.206 140.497 220.664 139.638 219.216 137.286 220.256 133.984 222.653 132.447z" class="colorfff svgShape"></path><path stroke="#ffffff" stroke-linecap="round" stroke-linejoin="round" stroke-miterlimit="10" stroke-width="1.2" d="M274.165 174.28L275.884 166.547" fill="#50C44A" class="color000 svgShape colorStroke000 svgStroke"></path><path fill="#ffffff" stroke="#ffffff" stroke-linecap="round" stroke-linejoin="round" stroke-miterlimit="10" stroke-width="1.2" d="M217.905 140.813C217.227 147.19 219.036 152.662 222.157 154.698C221.659 154.833 221.116 154.924 220.574 154.924C215.87 154.878 212.75 148.276 213.609 140.18C214.468 132.085 218.946 125.573 223.649 125.663C224.644 125.663 225.549 125.98 226.363 126.522C222.292 127.698 218.674 133.623 217.905 140.813Z" class="colorfff svgShape colorStroke000 svgStroke"></path><path stroke="#ffffff" stroke-linecap="round" stroke-linejoin="round" stroke-miterlimit="10" stroke-width="1.2" d="M280.631 49.8205L287.596 50.0466" fill="#50C44A" class="color000 svgShape colorStroke000 svgStroke"></path><path fill="#ffffff" stroke="#ffffff" stroke-linecap="round" stroke-linejoin="round" stroke-miterlimit="10" stroke-width="1.2" d="M165.942 94.322V172.742C165.942 174.235 164.766 175.456 163.274 175.546C154.048 176.044 144.189 176.315 133.877 176.27C82.1399 176.044 39.4022 168.582 38.4072 159.582V78.4028C38.9952 83.8298 54.643 88.6689 78.2958 91.7442C93.9889 93.7793 113.21 95.0456 133.877 95.0908C143.194 95.1361 152.148 94.9099 160.56 94.5481L165.942 94.322Z" class="colorfff svgShape colorStrokefff svgStroke"></path><path stroke="#8ecd8a" stroke-linecap="round" stroke-linejoin="round" stroke-miterlimit="10" stroke-width="1.2" d="M38.4072 159.537C38.4072 159.356 38.4072 159.13 38.4072 158.949C38.9499 153.567 54.5526 148.909 78.2958 146.195" fill="#50C44A" class="color000 svgShape colorStroke45E0A8 svgStroke"></path><path fill="#73cb6d" stroke="#ffffff" stroke-linecap="round" stroke-linejoin="round" stroke-miterlimit="10" stroke-width="1.2" d="M78.2503 48.5542V71.8451C54.6428 68.7698 38.9497 63.9307 38.407 58.5037C37.8191 53.1219 52.2007 48.4185 74.9037 45.5693C76.6675 45.3432 78.2503 46.7452 78.2503 48.5542Z" class="color45E0A8 svgShape colorStroke000 svgStroke"></path><path stroke="#ffffff" stroke-linecap="round" stroke-linejoin="round" stroke-miterlimit="10" stroke-width="1.2" d="M38.4072 111.055V78.4028M38.4072 158.949V109.563" fill="#50C44A" class="color000 svgShape colorStroke000 svgStroke"></path><path fill="#73cb6d" stroke="#8ecd8a" stroke-linecap="round" stroke-linejoin="round" stroke-miterlimit="10" stroke-width="1.2" d="M106.879 108.613V149.451L67.9853 110.693L72.0556 106.035C72.2365 105.809 72.146 105.493 71.8747 105.402L49.8501 96.2667C49.5335 96.1762 49.2621 96.4476 49.3526 96.7642L58.4881 118.834C58.5785 119.105 58.8951 119.196 59.1212 119.015L63.9151 114.809L112.396 163.109V124.985L141.838 163.833C142.923 165.235 144.913 165.552 146.36 164.466C147.808 163.381 148.124 161.346 147.039 159.898L107.964 108.251C107.603 107.799 106.879 108.025 106.879 108.613Z" class="color45E0A8 svgShape colorStroke45E0A8 svgStroke"></path><path fill="#ffffff" d="M98.6921 145.698V214.033C91.8631 214.44 84.401 214.666 76.6675 214.621C41.0754 214.44 11.679 209.329 11.0459 203.134V134.753C11.4529 138.462 22.2165 141.808 38.4523 143.889C49.2611 145.291 62.4668 146.15 76.6675 146.195C83.0442 146.24 89.1949 146.105 95.0289 145.788L98.6921 145.698Z" class="colorfff svgShape"></path><path fill="#50C44A" d="M34.9248 112.367V129.778C20.6336 127.653 11.4077 124.532 11.0459 121.095C10.6389 117.477 20.0457 114.357 34.9248 112.367Z" class="color000 svgShape"></path><path stroke="#8ecd8a" stroke-miterlimit="10" stroke-width="1.2" d="M34.9248 112.367V129.778C20.6336 127.653 11.4077 124.532 11.0459 121.095C10.6389 117.477 20.0457 114.357 34.9248 112.367Z" fill="#50C44A" class="color000 svgShape colorStroke45E0A8 svgStroke"></path><path stroke="#ffffff" stroke-linecap="round" stroke-linejoin="round" stroke-miterlimit="10" stroke-width="1.2" d="M34.9248 112.367V129.778C20.6336 127.653 11.4077 124.532 11.0459 121.095C10.6389 117.477 20.0457 114.357 34.9248 112.367Z" fill="#50C44A" class="color000 svgShape colorStroke000 svgStroke"></path><path stroke="#8ecd8a" stroke-linecap="round" stroke-linejoin="round" stroke-miterlimit="10" stroke-width="1.2" d="M98.6921 145.698V214.033C91.8631 214.44 84.401 214.666 76.6675 214.621C41.0754 214.44 11.679 209.329 11.0459 203.134V134.753C11.4529 138.462 22.2165 141.808 38.4523 143.889C49.2611 145.291 62.4668 146.15 76.6675 146.195C83.0442 146.24 89.1949 146.105 95.0289 145.788L98.6921 145.698Z" fill="#50C44A" class="color000 svgShape colorStroke45E0A8 svgStroke"></path><path fill="#73cb6d" stroke="#ffffff" stroke-linecap="round" stroke-linejoin="round" stroke-miterlimit="10" stroke-width="1.2" d="M165.942 79.7595V94.322L160.56 94.5481C152.148 94.9552 143.194 95.1361 133.877 95.0908C113.21 95.0004 93.9889 93.7793 78.2958 91.7442C54.643 88.6689 38.9499 83.8298 38.4072 78.4028V58.5037C38.9952 63.9307 54.643 68.7698 78.2958 71.8451C93.9889 73.8803 113.21 75.1466 133.877 75.1918C143.194 75.237 152.148 75.0109 160.56 74.6491C163.455 74.5134 165.942 76.8199 165.942 79.7595Z" class="color45E0A8 svgShape colorStroke000 svgStroke"></path><path fill="#73cb6d" stroke="#ffffff" stroke-linecap="round" stroke-linejoin="round" stroke-miterlimit="10" stroke-width="1.2" d="M147.714 90.3422C150.662 90.3422 153.051 87.953 153.051 85.0057C153.051 82.0584 150.662 79.6691 147.714 79.6691C144.767 79.6691 142.378 82.0584 142.378 85.0057C142.378 87.953 144.767 90.3422 147.714 90.3422Z" class="color45E0A8 svgShape colorStrokefff svgStroke"></path><path stroke="#ffffff" stroke-linecap="round" stroke-linejoin="round" stroke-miterlimit="10" stroke-width="1.2" d="M142.378 85.0056H153.051" fill="#50C44A" class="color000 svgShape colorStrokefff svgStroke"></path><path fill="#73cb6d" stroke="#ffffff" stroke-linecap="round" stroke-linejoin="round" stroke-miterlimit="10" stroke-width="1.2" d="M131.162 90.3422C134.109 90.3422 136.498 87.953 136.498 85.0057 136.498 82.0584 134.109 79.6691 131.162 79.6691 128.214 79.6691 125.825 82.0584 125.825 85.0057 125.825 87.953 128.214 90.3422 131.162 90.3422zM114.655 89.7543C117.602 89.7543 119.991 87.365 119.991 84.4177 119.991 81.4704 117.602 79.0812 114.655 79.0812 111.708 79.0812 109.318 81.4704 109.318 84.4177 109.318 87.365 111.708 89.7543 114.655 89.7543z" class="color45E0A8 svgShape colorStrokefff svgStroke"></path><path stroke="#ffffff" stroke-linecap="round" stroke-linejoin="round" stroke-miterlimit="10" stroke-width="1.2" d="M131.165 79.6691V90.3422" fill="#50C44A" class="color000 svgShape colorStrokefff svgStroke"></path><path stroke="#ffffff" stroke-linecap="round" stroke-linejoin="round" stroke-miterlimit="10" stroke-width="1.2" d="M259.51 131.904C259.51 131.904 266.655 130.774 267.288 143.617M261.955 132.311C261.955 132.311 270.05 130.909 270.638 143.753" fill="#50C44A" class="color000 svgShape colorStroke000 svgStroke"></path><path stroke="#ffffff" stroke-linecap="round" stroke-linejoin="round" stroke-miterlimit="10" stroke-width="1.2" d="M266.298 133.08C266.298 133.08 273.534 133.08 273.85 145.924C273.896 148.276 273.715 150.627 273.308 152.979C272.222 159.356 269.644 182.059 285.247 195.536" fill="#50C44A" class="color000 svgShape colorStroke000 svgStroke"></path><path fill="#50C44A" stroke="#ffffff" stroke-linecap="round" stroke-linejoin="round" stroke-miterlimit="10" stroke-width="1.2" d="M272.448 161.888C272.222 171.612 274.121 185.903 285.246 195.536L280.905 220.274C265.166 220.274 248.75 208.199 255.081 162.929C258.337 164.421 262.046 164.964 265.619 164.421C268.016 164.014 270.367 163.155 272.448 161.888Z" class="color000 svgShape colorStroke000 svgStroke"></path><path stroke="#ffffff" stroke-linecap="round" stroke-linejoin="round" stroke-miterlimit="10" stroke-width="1.2" d="M255.081 162.883C255.307 161.21 255.579 159.446 255.895 157.682 257.388 148.773 261.955 141.944 257.568 131.678 260.146 132.492 261.774 133.713 262.543 136.291 263.312 138.869 263.674 141.311 263.583 143.979M266.068 133.035C266.068 133.035 273.53 133.035 273.802 145.879 273.847 148.23 273.666 150.582 273.259 152.934 272.943 154.743 272.49 157.954 272.445 161.888" fill="#50C44A" class="color000 svgShape colorStroke000 svgStroke"></path><path stroke="#8ecd8a" stroke-linecap="round" stroke-linejoin="round" stroke-miterlimit="10" stroke-width="1.2" d="M285.246 195.491C274.12 185.858 272.99 171.521 273.849 161.843M284.704 221.585C266.252 222.535 247.529 207.159 253.86 161.843" fill="#50C44A" class="color000 svgShape colorStroke45E0A8 svgStroke"></path><path fill="#73cb6d" d="M249.924 246.007C248.432 239.721 252.773 233.344 258.245 230.043C263.718 226.741 270.14 225.746 276.245 223.982C282.35 222.219 288.591 219.279 291.802 213.716C294.742 208.561 294.471 202.093 296.958 196.712C300.26 189.657 307.722 185.631 315.093 183.325C322.42 181.019 330.244 179.843 337.028 176.134C345.846 171.34 352.223 162.205 353.851 152.165C358.645 163.064 357.831 176.496 352.947 187.35C350.278 193.32 346.208 198.702 344.761 205.078C343.721 209.556 344.083 214.214 343.766 218.827C343.449 223.394 342.228 228.234 338.837 231.354C334.857 235.017 328.842 235.424 324.048 237.957C318.44 240.942 314.822 246.64 312.108 252.384C309.44 258.127 307.405 264.278 303.697 269.434C295.194 281.418 264.848 281.056 251.462 274.996" class="color45E0A8 svgShape"></path><path stroke="#ffffff" stroke-linecap="round" stroke-linejoin="round" stroke-miterlimit="10" stroke-width="1.2" d="M249.924 246.007C248.432 239.721 252.773 233.344 258.245 230.043C263.718 226.741 270.14 225.746 276.245 223.982C282.35 222.219 288.591 219.279 291.802 213.716C294.742 208.561 294.471 202.093 296.958 196.712C300.26 189.657 307.722 185.631 315.093 183.325C322.42 181.019 330.244 179.843 337.028 176.134C345.846 171.34 352.223 162.205 353.851 152.165C358.645 163.064 357.831 176.496 352.947 187.35C350.278 193.32 346.208 198.702 344.761 205.078C343.721 209.556 344.083 214.214 343.766 218.827C343.449 223.394 342.228 228.234 338.837 231.354C334.857 235.017 328.842 235.424 324.048 237.957C318.44 240.942 314.822 246.64 312.108 252.384C309.44 258.127 307.405 264.278 303.697 269.434C295.194 281.418 264.848 281.056 251.462 274.996" fill="#50C44A" class="color000 svgShape colorStrokefff svgStroke"></path><path stroke="#ffffff" stroke-linecap="round" stroke-linejoin="round" stroke-miterlimit="10" stroke-width="1.2" d="M266.251 266.765C266.522 260.253 270.954 254.555 276.2 250.71 281.447 246.866 287.597 244.424 293.341 241.349 299.084 238.273 304.692 234.248 307.587 228.414 311.386 220.771 310.21 210.777 315.863 204.4 319.164 200.691 324.139 199.018 328.571 196.712 343.993 188.752 354.937 169.531 353.852 152.165M306.456 186.988C306.682 186.853 312.833 209.465 312.833 209.465" fill="#50C44A" class="color000 svgShape colorStrokefff svgStroke"></path><mask id="a" width="325" height="292" x="27" y="2" maskUnits="userSpaceOnUse"><path fill="#73cb6d" d="M351.678 6.02503V131.977C351.678 139.53 351.135 146.992 350.141 154.273C343.585 201.946 316.264 243 277.603 268.029C290.778 286.538 267.93 274.268 262.951 276.463C240.343 287.948 214.681 294.284 187.511 293.928C153.095 293.476 121.437 282.124 95.5232 263.22C54.3684 233.191 27.6855 184.167 27.6855 129.535V66.6719C27.6855 64.4558 29.4946 62.6469 31.7106 62.6469H135.728V36.3258C135.728 34.1098 137.537 32.3008 139.753 32.3008H243.726V6.02503C243.726 3.809 245.535 2 247.751 2H347.698C349.914 2 351.678 3.809 351.678 6.02503Z" class="color45E0A8 svgShape"></path></mask><g mask="url(#a)" fill="#50C44A" class="color000 svgShape"><path stroke="#ffffff" stroke-linecap="round" stroke-linejoin="round" stroke-miterlimit="10" stroke-width="1.2" d="M123.432 293.674C122.527 290.554 124.517 287.343 126.914 285.127C133.155 279.428 143.014 278.117 150.521 281.961C148.17 272.464 150.657 261.519 156.762 253.876C162.913 246.233 172.727 241.711 182.496 241.937" fill="#50C44A" class="color000 svgShape colorStroke000 svgStroke"></path><path fill="#73cb6d" d="M263.902 295.845C263.902 295.845 234.279 291.096 198.099 260.75C161.964 230.404 156.944 198.837 156.944 198.837C156.944 198.837 189.959 193.682 227.45 222.354C264.942 251.027 280.454 280.966 280.454 280.966" class="color45E0A8 svgShape"></path><path stroke="#ffffff" stroke-linecap="round" stroke-linejoin="round" stroke-miterlimit="10" stroke-width="1.2" d="M263.902 295.845C263.902 295.845 234.279 291.096 198.099 260.75 161.964 230.404 156.944 198.837 156.944 198.837 156.944 198.837 189.959 193.682 227.45 222.354 264.942 251.027 280.454 280.966 280.454 280.966M156.991 198.792L280.908 293.674M211.487 240.535L205.789 208.877M243.189 264.821L204.296 265.725" fill="#50C44A" class="color000 svgShape colorStroke000 svgStroke"></path></g><path fill="#ffffff" stroke="#ffffff" stroke-linecap="round" stroke-linejoin="round" stroke-miterlimit="10" stroke-width="1.2" d="M78.2506 65.2875V71.8452C70.7432 70.8502 64.0047 69.7196 58.3516 68.4081C64.0499 67.187 70.7432 66.1468 78.2506 65.2875Z" class="colorfff svgShape colorStroke000 svgStroke"></path><path stroke="#ffffff" stroke-linecap="round" stroke-linejoin="round" stroke-miterlimit="10" stroke-width="1.2" d="M280.497 247.906L312.932 250.525M287.598 218.51L287.01 244.515" fill="#50C44A" class="color000 svgShape colorStrokefff svgStroke"></path><path fill="#73cb6d" stroke="#ffffff" stroke-linecap="round" stroke-linejoin="round" stroke-miterlimit="10" stroke-width="1.2" d="M98.6915 135.703V145.698L94.983 145.833C89.1942 146.105 83.0436 146.24 76.6216 146.24C62.4209 146.195 49.2152 145.336 38.4064 143.934C22.1706 141.808 11.407 138.507 11 134.798V121.14C11.407 124.849 22.1706 128.196 38.4064 130.276C49.2152 131.678 62.4209 132.537 76.6216 132.582C82.9984 132.628 89.149 132.492 94.983 132.221C97.0181 132.085 98.6915 133.668 98.6915 135.703Z" class="color45E0A8 svgShape colorStroke000 svgStroke"></path><path fill="#ffffff" stroke="#ffffff" stroke-linecap="round" stroke-linejoin="round" stroke-miterlimit="10" stroke-width="1.2" d="M90.9567 142.939C92.78 142.939 94.2581 141.461 94.2581 139.638 94.2581 137.814 92.78 136.336 90.9567 136.336 89.1334 136.336 87.6553 137.814 87.6553 139.638 87.6553 141.461 89.1334 142.939 90.9567 142.939zM80.1022 142.939C81.9255 142.939 83.4036 141.461 83.4036 139.638 83.4036 137.814 81.9255 136.336 80.1022 136.336 78.2789 136.336 76.8008 137.814 76.8008 139.638 76.8008 141.461 78.2789 142.939 80.1022 142.939zM69.2028 142.532C71.0261 142.532 72.5042 141.054 72.5042 139.231 72.5042 137.407 71.0261 135.929 69.2028 135.929 67.3795 135.929 65.9014 137.407 65.9014 139.231 65.9014 141.054 67.3795 142.532 69.2028 142.532z" class="colorfff svgShape colorStrokefff svgStroke"></path><path fill="#ffffff" stroke="#8ecd8a" stroke-linecap="round" stroke-linejoin="round" stroke-miterlimit="10" stroke-width="1.2" d="M42.0693 227.419H164.539C164.539 227.419 156.941 213.716 143.735 213.716C130.53 213.716 131.389 218.013 120.987 218.013C110.585 218.013 106.922 200.013 91.229 200.013C75.5359 200.013 70.4255 217.244 64.8176 217.244C59.2096 217.244 46.0039 219.008 42.0693 227.419Z" class="colorfff svgShape colorStroke45E0A8 svgStroke"></path><path fill="#ffffff" stroke="#ffffff" stroke-linecap="round" stroke-linejoin="round" stroke-miterlimit="10" stroke-width="1.2" d="M335.31 64.8352C333.32 65.6945 330.968 66.5538 328.254 67.3226C326.355 67.8653 325.043 69.6291 325.043 71.619V105.945C311.385 102.508 290.853 100.201 267.653 99.8847C265.301 99.8395 263.356 97.94 263.356 95.5431V56.6495C295.331 56.7852 322.737 59.363 335.31 64.8352Z" class="colorfff svgShape colorStrokefff svgStroke"></path><path stroke="#ffffff" stroke-linecap="round" stroke-linejoin="round" stroke-miterlimit="10" stroke-width="1.2" d="M335.31 64.8353C322.782 59.363 295.331 56.74 263.356 56.6495V46.1573C263.356 43.8056 265.256 41.9062 267.608 41.9514 309.531 42.5393 342.591 49.5492 342.591 58.0967M342.589 72.8401C342.589 76.639 336.032 80.1666 325.042 82.9253" fill="#50C44A" class="color000 svgShape colorStroke000 svgStroke"></path><path stroke="#ffffff" stroke-linecap="round" stroke-linejoin="round" stroke-miterlimit="10" stroke-width="1.2" d="M342.592 58.0968V116.03C342.592 119.467 337.21 122.678 328.029 125.301 326.537 125.754 324.999 124.623 324.999 123.04V71.6191C324.999 69.6292 326.311 67.8654 328.21 67.3227 330.923 66.5539 333.275 65.6946 335.265 64.8353 339.969 62.8002 342.592 60.5389 342.592 58.0968zM273.488 52.8054C275.436 52.8054 277.015 51.226 277.015 49.2778 277.015 47.3296 275.436 45.7503 273.488 45.7503 271.539 45.7503 269.96 47.3296 269.96 49.2778 269.96 51.226 271.539 52.8054 273.488 52.8054zM284.158 53.4385C286.107 53.4385 287.686 51.8592 287.686 49.9109 287.686 47.9627 286.107 46.3834 284.158 46.3834 282.21 46.3834 280.631 47.9627 280.631 49.9109 280.631 51.8592 282.21 53.4385 284.158 53.4385zM294.833 53.6647C296.781 53.6647 298.361 52.0853 298.361 50.1371 298.361 48.1889 296.781 46.6096 294.833 46.6096 292.885 46.6096 291.306 48.1889 291.306 50.1371 291.306 52.0853 292.885 53.6647 294.833 53.6647z" fill="#50C44A" class="color000 svgShape colorStroke000 svgStroke"></path><path stroke="#8ecd8a" stroke-linecap="round" stroke-linejoin="round" stroke-miterlimit="10" stroke-width="1.2" d="M90.96 134.889V144.296" fill="#50C44A" class="color000 svgShape colorStroke45E0A8 svgStroke"></path><path fill="#73cb6d" d="M282.349 86.679V92.9201C279.41 92.7844 276.425 92.6487 273.35 92.5582 271.631 92.513 270.274 91.0658 270.319 89.3473 270.365 87.6287 271.812 86.272 273.53 86.3172 276.515 86.4076 279.455 86.5433 282.349 86.679zM318.665 93.915C318.394 95.4074 317.082 96.4928 315.59 96.4928 315.409 96.4928 315.228 96.4928 315.047 96.4476 305.595 94.7743 294.425 93.5532 282.35 92.92V86.679C294.832 87.3121 306.364 88.5784 316.178 90.3422 317.851 90.6136 318.937 92.2417 318.665 93.915z" class="color45E0A8 svgShape"></path><path fill="#73cb6d" d="M282.349 86.679V92.9201C279.41 92.7844 276.425 92.6487 273.35 92.5582C271.631 92.513 270.274 91.0658 270.319 89.3473C270.365 87.6287 271.812 86.272 273.53 86.3172C276.515 86.4076 279.455 86.5433 282.349 86.679Z" class="color45E0A8 svgShape"></path><path fill="#ffffff" d="M318.665 93.915C318.394 95.4074 317.082 96.4928 315.59 96.4928C315.409 96.4928 315.228 96.4928 315.047 96.4476C305.595 94.7743 294.425 93.5532 282.35 92.92V86.679C294.832 87.3121 306.364 88.5784 316.178 90.3422C317.851 90.6136 318.937 92.2417 318.665 93.915Z" class="colorfff svgShape"></path><path stroke="#8ecd8a" stroke-linecap="round" stroke-linejoin="round" stroke-miterlimit="10" stroke-width="1.2" d="M282.349 86.679V92.9201C279.41 92.7844 276.425 92.6487 273.35 92.5582 271.631 92.513 270.274 91.0658 270.319 89.3473 270.365 87.6287 271.812 86.272 273.53 86.3172 276.515 86.4076 279.455 86.5433 282.349 86.679zM318.665 93.915C318.394 95.4074 317.082 96.4928 315.59 96.4928 315.409 96.4928 315.228 96.4928 315.047 96.4476 305.595 94.7743 294.425 93.5532 282.35 92.92V86.679C294.832 87.3121 306.364 88.5784 316.178 90.3422 317.851 90.6136 318.937 92.2417 318.665 93.915z" fill="#50C44A" class="color000 svgShape colorStroke45E0A8 svgStroke"></path><path fill="#73cb6d" d="M304.826 77.4983V83.7846C295.329 82.5635 284.656 81.7495 273.35 81.4329C271.631 81.3877 270.274 79.9405 270.319 78.2219C270.365 76.5034 271.812 75.1466 273.53 75.1918C284.701 75.5536 295.329 76.3225 304.826 77.4983Z" class="color45E0A8 svgShape"></path><path fill="#73cb6d" d="M318.664 82.8349C318.393 84.3273 317.081 85.4127 315.589 85.4127C315.408 85.4127 315.227 85.4127 315.046 85.3675C311.835 84.7796 308.398 84.2821 304.825 83.8298V77.4983C308.805 77.9958 312.604 78.5385 316.131 79.2169C317.85 79.5334 318.935 81.1163 318.664 82.8349Z" class="color45E0A8 svgShape"></path><path fill="#73cb6d" d="M304.826 77.4983V83.7846C295.329 82.5635 284.656 81.7495 273.35 81.4329C271.631 81.3877 270.274 79.9405 270.319 78.2219C270.365 76.5034 271.812 75.1466 273.53 75.1918C284.701 75.5536 295.329 76.3225 304.826 77.4983Z" class="color45E0A8 svgShape"></path><path fill="#ffffff" d="M318.664 82.8349C318.393 84.3273 317.081 85.4127 315.589 85.4127C315.408 85.4127 315.227 85.4127 315.046 85.3675C311.835 84.7796 308.398 84.2821 304.825 83.8298V77.4983C308.805 77.9958 312.604 78.5385 316.131 79.2169C317.85 79.5334 318.935 81.1163 318.664 82.8349Z" class="colorfff svgShape"></path><path stroke="#8ecd8a" stroke-linecap="round" stroke-linejoin="round" stroke-miterlimit="10" stroke-width="1.2" d="M304.826 77.4983V83.7846C295.329 82.5635 284.656 81.7495 273.35 81.4329C271.631 81.3877 270.274 79.9405 270.319 78.2219C270.365 76.5034 271.812 75.1466 273.53 75.1918C284.701 75.5536 295.329 76.3225 304.826 77.4983Z" fill="#50C44A" class="color000 svgShape colorStroke45E0A8 svgStroke"></path><path stroke="#8ecd8a" stroke-linecap="round" stroke-linejoin="round" stroke-miterlimit="10" stroke-width="1.2" d="M318.664 82.8349C318.393 84.3273 317.081 85.4127 315.589 85.4127C315.408 85.4127 315.227 85.4127 315.046 85.3675C311.835 84.7796 308.398 84.2821 304.825 83.8298V77.4983C308.805 77.9958 312.604 78.5385 316.131 79.2169C317.85 79.5334 318.935 81.1163 318.664 82.8349Z" fill="#50C44A" class="color000 svgShape colorStroke45E0A8 svgStroke"></path><path fill="#73cb6d" d="M293.022 65.1971V71.4382C286.781 70.8955 280.179 70.5337 273.35 70.3528 271.631 70.3075 270.274 68.8604 270.319 67.1418 270.365 65.4232 271.812 64.0665 273.53 64.1117 280.269 64.3378 286.781 64.6996 293.022 65.1971zM318.667 71.7095C318.396 73.2019 317.084 74.2873 315.592 74.2873 315.411 74.2873 315.23 74.2873 315.049 74.2421 308.446 73.0663 301.029 72.1165 293.024 71.4382V65.1971C301.436 65.8755 309.26 66.8704 316.18 68.1367 317.853 68.4081 318.938 70.0362 318.667 71.7095z" class="color45E0A8 svgShape"></path><path fill="#73cb6d" d="M293.022 65.1971V71.4382C286.781 70.8955 280.179 70.5337 273.35 70.3528C271.631 70.3075 270.274 68.8604 270.319 67.1418C270.365 65.4232 271.812 64.0665 273.53 64.1117C280.269 64.3378 286.781 64.6996 293.022 65.1971Z" class="color45E0A8 svgShape"></path><path fill="#ffffff" d="M318.667 71.7095C318.396 73.2019 317.084 74.2873 315.592 74.2873C315.411 74.2873 315.23 74.2873 315.049 74.2421C308.446 73.0663 301.029 72.1165 293.024 71.4382V65.1971C301.436 65.8755 309.26 66.8704 316.18 68.1367C317.853 68.4081 318.938 70.0362 318.667 71.7095Z" class="colorfff svgShape"></path><path stroke="#8ecd8a" stroke-linecap="round" stroke-linejoin="round" stroke-miterlimit="10" stroke-width="1.2" d="M293.022 65.1971V71.4382C286.781 70.8955 280.179 70.5337 273.35 70.3528 271.631 70.3075 270.274 68.8604 270.319 67.1418 270.365 65.4232 271.812 64.0665 273.53 64.1117 280.269 64.3378 286.781 64.6996 293.022 65.1971zM318.667 71.7095C318.396 73.2019 317.084 74.2873 315.592 74.2873 315.411 74.2873 315.23 74.2873 315.049 74.2421 308.446 73.0663 301.029 72.1165 293.024 71.4382V65.1971C301.436 65.8755 309.26 66.8704 316.18 68.1367 317.853 68.4081 318.938 70.0362 318.667 71.7095z" fill="#50C44A" class="color000 svgShape colorStroke45E0A8 svgStroke"></path><path fill="#ffffff" stroke="#8ecd8a" stroke-linecap="round" stroke-linejoin="round" stroke-miterlimit="10" stroke-width="1.2" d="M191.038 80.1666H272.579C272.579 80.1666 271.087 71.1216 261.725 71.1216C252.363 71.1216 250.102 59.9962 241.238 59.9962C232.374 59.9962 227.625 69.6744 222.198 69.6744C216.771 69.6744 194.701 69.9005 191.038 80.1666Z" class="colorfff svgShape colorStroke45E0A8 svgStroke"></path><path fill="#50C44A" stroke="#ffffff" stroke-linecap="round" stroke-linejoin="round" stroke-miterlimit="10" stroke-width="1.2" d="M30.4473 120.372L34.8341 112.367L38.4069 111.779L38.4521 130.231L33.0703 129.462L30.4473 120.372Z" class="color000 svgShape colorStroke000 svgStroke"></path><path fill="#73cb6d" stroke="#8ecd8a" stroke-linecap="round" stroke-linejoin="round" stroke-miterlimit="10" stroke-width="1.2" d="M44.0111 189.657V199.063C36.1419 198.295 29.0416 197.254 23.298 195.988C22.2126 195.762 21.3081 195.174 20.6749 194.36C20.0418 193.546 19.6348 192.551 19.6348 191.42C19.6348 188.436 22.3935 186.219 25.2879 186.853C30.4436 187.983 36.8655 188.933 44.0111 189.657Z" class="color45E0A8 svgShape colorStroke45E0A8 svgStroke"></path><path fill="#ffffff" stroke="#8ecd8a" stroke-linecap="round" stroke-linejoin="round" stroke-miterlimit="10" stroke-width="1.2" d="M83.9894 195.807C84.0347 198.385 81.9543 200.556 79.3765 200.556C78.5624 200.556 77.7484 200.556 76.9343 200.556C76.4368 200.556 75.8941 200.556 75.3967 200.556C64.3165 200.511 53.5982 199.968 44.0557 199.063V189.657C53.5077 190.606 64.3165 191.194 75.4419 191.239C76.7534 191.239 78.0197 191.239 79.3312 191.239C81.8186 191.194 83.899 193.275 83.9894 195.807Z" class="colorfff svgShape colorStroke45E0A8 svgStroke"></path><path fill="#73cb6d" stroke="#8ecd8a" stroke-linecap="round" stroke-linejoin="round" stroke-miterlimit="10" stroke-width="1.2" d="M61.8298 174.325V183.687C46.7698 183.054 33.1571 181.561 23.298 179.39C22.2126 179.164 21.3081 178.576 20.6749 177.762C20.0418 176.948 19.6348 175.953 19.6348 174.823C19.6348 171.838 22.3935 169.622 25.2879 170.255C34.4686 172.29 47.4934 173.737 61.8298 174.325Z" class="color45E0A8 svgShape colorStroke45E0A8 svgStroke"></path><path fill="#ffffff" stroke="#8ecd8a" stroke-linecap="round" stroke-linejoin="round" stroke-miterlimit="10" stroke-width="1.2" d="M83.9911 179.21C84.0363 181.787 81.9559 183.958 79.3781 183.958C78.564 183.958 77.75 183.958 76.9359 183.958C76.4385 183.958 75.8958 183.958 75.3983 183.958C70.7853 183.958 66.2628 183.823 61.876 183.642V174.28C66.308 174.461 70.8758 174.551 75.4435 174.597C76.755 174.597 78.0213 174.597 79.3329 174.597C81.8202 174.642 83.9006 176.677 83.9911 179.21Z" class="colorfff svgShape colorStroke45E0A8 svgStroke"></path><path fill="#73cb6d" stroke="#8ecd8a" stroke-linecap="round" stroke-linejoin="round" stroke-miterlimit="10" stroke-width="1.2" d="M83.9899 162.657C84.0351 165.235 81.9548 167.406 79.3769 167.406C78.5629 167.406 77.7488 167.406 76.9348 167.406C76.4373 167.406 75.8946 167.406 75.3971 167.406C68.342 167.361 61.4226 167.134 54.9102 166.727V157.366C61.4678 157.773 68.3872 157.999 75.4423 158.044C76.7539 158.044 78.0202 158.044 79.3317 158.044C81.8191 158.044 83.8994 160.079 83.9899 162.657Z" class="color45E0A8 svgShape colorStroke45E0A8 svgStroke"></path><path fill="#ffffff" stroke="#8ecd8a" stroke-linecap="round" stroke-linejoin="round" stroke-miterlimit="10" stroke-width="1.2" d="M54.8671 157.411V166.773C42.6111 166.004 31.6214 164.647 23.3 162.838C22.2145 162.612 21.31 162.024 20.6769 161.21C20.0437 160.396 19.6367 159.401 19.6367 158.27C19.6367 155.286 22.3955 153.069 25.2899 153.703C32.9329 155.376 43.2894 156.642 54.8671 157.411Z" class="colorfff svgShape colorStroke45E0A8 svgStroke"></path><path stroke="#8ecd8a" stroke-linecap="round" stroke-linejoin="round" stroke-miterlimit="10" stroke-width="1.2" d="M74.6318 139.592H85.6215" fill="#50C44A" class="color000 svgShape colorStroke45E0A8 svgStroke"></path></svg></g></svg>