<svg id="SvgjsSvg1001" width="288" height="288" xmlns="http://www.w3.org/2000/svg" version="1.1" xmlns:xlink="http://www.w3.org/1999/xlink" xmlns:svgjs="http://svgjs.com/svgjs"><defs id="SvgjsDefs1002"></defs><g id="SvgjsG1008" transform="matrix(1,0,0,1,0,0)"><svg xmlns="http://www.w3.org/2000/svg" xmlns:svgjs="http://svgjs.com/svgjs" xmlns:xlink="http://www.w3.org/1999/xlink" width="288" height="288"><svg xmlns="http://www.w3.org/2000/svg" width="288" height="288" enable-background="new 0 0 1200 1200" viewBox="0 0 1200 1200"><path fill="#adeaa6" d="M1105.435,600c0,141.197-57.231,269.026-149.762,361.557s-220.36,149.762-361.557,149.762			c-141.197,0-269.027-57.231-361.557-149.762S82.797,741.197,82.797,600c0-141.197,57.231-269.027,149.762-361.557			S452.919,88.681,594.116,88.681c141.197,0,269.026,57.231,361.557,149.762S1105.435,458.803,1105.435,600z" class="colorcdf5ff svgShape coloradeaa6"></path><path fill="#3e3f43" d="M163.848,876.35c45.486,70.674,107.907,129.416,181.529,170.49
			c73.622,41.074,158.447,64.479,248.739,64.479c120.618,0,231.473-41.768,318.901-111.628
			c87.428-69.86,151.429-167.813,178.339-280.182c-153.999,23.396-307.789,46.436-462.123,71.711S320.022,844.008,163.848,876.35z" class="colorbbe6dd svgShape color1f2022"></path><path fill="#a0e19c" d="M630.352,340.877c-0.377-3.052,0.521-5.97,2.275-8.219c1.755-2.249,4.366-3.83,7.416-4.207l0,0l0,0
			c3.054-0.378,5.972,0.519,8.221,2.273s3.828,4.366,4.206,7.418l0,0l0,0c0.377,3.052-0.518,5.97-2.272,8.219
			c-1.754,2.249-4.365,3.83-7.419,4.208l0,0l0,0c-3.05,0.377-5.968-0.52-8.218-2.274
			C632.311,346.541,630.729,343.929,630.352,340.877z M584.57,342.499L584.57,342.499L584.57,342.499L584.57,342.499L584.57,342.499
			c-2.843-1.177-4.918-3.414-5.986-6.055s-1.129-5.688,0.056-8.483l0,0l0,0c1.218-2.846,3.45-4.941,6.09-6.02
			c2.64-1.079,5.687-1.141,8.535,0.079l0,0l0,0c2.838,1.175,4.911,3.411,5.98,6.064c1.069,2.652,1.135,5.721-0.04,8.561l0,0l0,0
			c-0.801,1.895-2.091,3.447-3.658,4.584s-3.409,1.86-5.314,2.095l0,0l0,0c-0.929,0.115-1.871,0.119-2.818-0.012
			S585.517,342.92,584.57,342.499z M681.739,326.348c-1.879-2.461-2.564-5.452-2.175-8.284c0.39-2.833,1.855-5.507,4.278-7.335l0,0
			l0,0c2.466-1.875,5.433-2.579,8.253-2.198c2.82,0.381,5.493,1.846,7.367,4.31l0,0l0,0c1.879,2.463,2.565,5.455,2.175,8.287
			c-0.39,2.833-1.855,5.506-4.279,7.332l0,0l0,0c0,0,0,0-0.012,0.001c-0.012,0.001-0.036,0.004-0.083,0.01l0,0l0,0
			c-0.778,0.59-1.639,1.078-2.537,1.447c-0.898,0.369-1.835,0.62-2.763,0.735l0,0l0,0c-1.901,0.235-3.84-0.018-5.612-0.742
			C684.579,329.187,682.973,327.993,681.739,326.348z M538.159,306.467c-1.875-2.461-2.555-5.431-2.163-8.253
			c0.392-2.822,1.857-5.497,4.275-7.368l0,0l0,0c2.465-1.877,5.436-2.558,8.257-2.165c2.822,0.393,5.494,1.859,7.363,4.277l0,0l0,0
			c1.879,2.463,2.562,5.432,2.171,8.253s-1.857,5.495-4.274,7.366l0,0l0,0c-0.82,0.641-1.704,1.132-2.616,1.491
			s-1.851,0.587-2.779,0.702l0,0l0,0c-1.901,0.235-3.84-0.019-5.613-0.742S539.397,308.112,538.159,306.467z M718.846,287.987
			c-2.838-1.175-4.911-3.411-5.98-6.064c-1.069-2.652-1.135-5.721,0.04-8.561l0,0l0,0c1.228-2.801,3.465-4.874,6.106-5.942
			c2.641-1.068,5.686-1.131,8.529,0.088l0,0l0,0c2.843,1.177,4.918,3.414,5.986,6.055s1.129,5.688-0.056,8.483l0,0l0,0
			c-0.834,1.945-2.12,3.519-3.673,4.665s-3.375,1.865-5.28,2.1l0,0l0,0c-0.929,0.115-1.871,0.12-2.819-0.01
			C720.75,288.673,719.797,288.409,718.846,287.987z M515.975,251.996L515.975,251.996L515.975,251.996L515.975,251.996
			L515.975,251.996c-0.378-3.054,0.52-5.972,2.275-8.221c1.755-2.249,4.367-3.828,7.417-4.206l0,0l0,0
			c3.049-0.423,5.964,0.451,8.211,2.194c2.247,1.743,3.827,4.355,4.204,7.407l0,0l0,0c0.377,3.052-0.518,5.97-2.26,8.229
			c-1.741,2.259-4.329,3.86-7.334,4.277l0,0l0,0c-3.093,0.383-6.032-0.512-8.293-2.264
			C517.935,257.66,516.353,255.048,515.975,251.996z M719.425,226.565c-0.005-0.043-0.008-0.065-0.011-0.087
			c-0.003-0.022-0.005-0.045-0.011-0.09l0,0l0,0c-0.005-0.043-0.008-0.065-0.011-0.087c-0.003-0.022-0.005-0.045-0.011-0.09l0,0l0,0
			c-0.378-3.052,0.497-5.967,2.238-8.225c1.742-2.259,4.35-3.861,7.442-4.287l0,0l0,0c3.011-0.372,5.929,0.524,8.188,2.277
			c2.26,1.753,3.861,4.362,4.238,7.414l0,0l0,0c0.005,0.043,0.011,0.087,0.015,0.121c0.004,0.033,0.007,0.056,0.007,0.056l0,0l0,0
			c0.005,0.043,0.011,0.087,0.016,0.132c0.005,0.044,0.011,0.089,0.016,0.132l0,0l0,0c0.378,3.052-0.518,5.97-2.272,8.219
			c-1.754,2.249-4.365,3.83-7.419,4.208l0,0l0,0c-3.05,0.377-5.968-0.52-8.218-2.274
			C721.384,232.229,719.802,229.617,719.425,226.565z M719.381,226.211L719.381,226.211L719.381,226.211L719.381,226.211
			L719.381,226.211L719.381,226.211L719.381,226.211L719.381,226.211L719.381,226.211z M529.891,208.324
			c-2.843-1.175-4.915-3.411-5.983-6.063c-1.068-2.652-1.132-5.721,0.043-8.562l0,0l0,0c1.219-2.844,3.454-4.916,6.095-5.984
			s5.688-1.131,8.53,0.044l0,0l0,0c2.844,1.221,4.917,3.458,5.984,6.099c1.068,2.641,1.131,5.687-0.044,8.526l0,0l0,0
			c-0.8,1.897-2.067,3.469-3.618,4.627c-1.552,1.158-3.39,1.902-5.334,2.142l0,0l0,0c-0.929,0.115-1.874,0.097-2.824-0.045
			C531.79,208.967,530.836,208.703,529.891,208.324z M701.485,182.433c-1.873-2.417-2.578-5.384-2.198-8.215
			c0.38-2.831,1.845-5.528,4.31-7.405l0,0l0,0c2.461-1.875,5.43-2.555,8.251-2.163c2.822,0.392,5.496,1.858,7.37,4.275l0,0l0,0
			c1.875,2.463,2.577,5.43,2.196,8.25s-1.847,5.494-4.308,7.37l0,0l0,0c-0.82,0.641-1.681,1.129-2.579,1.487
			c-0.899,0.358-1.836,0.586-2.807,0.706l0,0l0,0c-1.905,0.236-3.846-0.018-5.62-0.741
			C704.325,185.273,702.719,184.079,701.485,182.433z M557.872,162.917c-1.879-2.463-2.565-5.454-2.175-8.286
			c0.39-2.832,1.855-5.506,4.278-7.334l0,0l0,0c2.465-1.877,5.455-2.583,8.286-2.203c2.831,0.38,5.503,1.847,7.335,4.315l0,0l0,0
			c1.879,2.463,2.584,5.429,2.203,8.249s-1.846,5.494-4.307,7.37l0,0l0,0c-0.826,0.596-1.686,1.084-2.585,1.453
			c-0.898,0.369-1.834,0.62-2.811,0.741l0,0l0,0c-1.901,0.235-3.843-0.041-5.617-0.776
			C560.706,165.711,559.1,164.517,557.872,162.917z M664.036,153.473L664.036,153.473L664.036,153.473
			c-2.838-1.175-4.908-3.39-5.975-6.021c-1.067-2.631-1.13-5.678,0.045-8.518l0,0l0,0c1.223-2.844,3.457-4.94,6.097-6.019
			c2.64-1.079,5.684-1.142,8.528,0.079l0,0l0,0c2.843,1.177,4.915,3.391,5.981,6.021c1.066,2.63,1.127,5.676-0.052,8.517l0,0l0,0
			c-0.791,1.94-2.055,3.511-3.597,4.655c-1.543,1.145-3.364,1.863-5.269,2.099l0,0l0,0c-0.929,0.115-1.893,0.122-2.862-0.005
			C665.962,154.155,664.987,153.894,664.036,153.473z M604.845,137.529c-0.426-3.092,0.447-6.03,2.19-8.289s4.354-3.84,7.404-4.217
			l0,0l0,0c3.054-0.378,5.972,0.519,8.231,2.272c2.26,1.753,3.861,4.362,4.281,7.409l0,0l0,0c0.377,3.052-0.518,5.97-2.272,8.219
			s-4.365,3.83-7.419,4.207l0,0l0,0c-3.05,0.377-5.965-0.497-8.212-2.228C606.802,143.17,605.223,140.581,604.845,137.529z" class="colorFFF svgShape colora0e19c"></path><path fill="#a0e19c" d="M614.205,190.405l-193.597,107.19l-193.597,107.19c-2.766,1.422-5.844,1.729-8.688,1.053
		c-2.844-0.676-5.454-2.336-7.284-4.851l-45.535-47.262l-45.535-47.262c-1.935-2.658-4.728-4.351-7.738-4.95
		c-3.011-0.6-6.239-0.107-9.044,1.607l-23.571,14.398l-23.571,14.398c-3.02,1.845-4.987,4.751-5.72,7.941
		c-0.734,3.19-0.235,6.663,1.676,9.642l65.878,87.356l65.878,87.356c1.713,2.672,4.285,4.499,7.146,5.319
		c2.861,0.82,6.01,0.633,8.878-0.725l78.245-37.046l78.245-37.046c2.916-1.381,6.118-1.55,9.011-0.687s5.478,2.761,7.16,5.514
		l28.322,51.125l28.322,51.125c1.78,2.913,2.239,6.27,1.539,9.365c-0.7,3.094-2.561,5.926-5.421,7.789l-76.946,55.669
		l-76.946,55.669c-2.617,1.705-4.413,4.238-5.232,7.055c-0.818,2.818-0.658,5.919,0.639,8.76l39.618,86.793l39.618,86.794
		c0.809,1.773,1.186,3.684,1.135,5.583c-0.052,1.899-0.532,3.786-1.436,5.513l-10.236,19.544l-10.236,19.544
		c-2.352,4.491-1.71,9.382,0.779,13.004s6.825,5.974,11.861,5.388l61.013-7.106l61.013-7.106c4.297-0.5,7.712-3.04,9.586-6.43
		s2.208-7.633,0.346-11.538l-39.487-82.797l-39.487-82.797c-1.344-2.818-1.557-5.915-0.787-8.745s2.522-5.393,5.108-7.142
		l65.027-46.387l65.027-46.387c2.829-1.913,6.163-2.528,9.287-1.97c3.124,0.557,6.04,2.287,8.033,5.06l50.334,65.879l50.334,65.879
		c1.857,2.585,4.532,4.276,7.44,4.94s6.052,0.301,8.847-1.221l84.164-47.63l84.164-47.63c1.135-0.618,2.351-1.055,3.605-1.301
		c1.254-0.246,2.545-0.302,3.829-0.159l30.442,3.389l30.442,3.389c5.379,0.599,9.862-2.105,12.231-6.071s2.624-9.196-0.453-13.648
		l-31.176-45.105L845.52,580.52c-1.787-2.586-4.389-4.316-7.248-5.049s-5.972-0.467-8.783,0.939l-67.984,35.622l-67.984,35.622
		c-2.907,1.455-6.13,1.687-9.057,0.866c-2.927-0.821-5.559-2.695-7.286-5.45l-82.498-128.426l-82.498-128.426
		c-1.934-3.086-2.365-6.669-1.511-9.913c0.854-3.244,2.991-6.151,6.194-7.886l45.449-29.474l45.449-29.474
		c2.771-1.501,5.882-1.865,8.768-1.219s5.545,2.302,7.412,4.84l31.156,36.283l31.156,36.283c2.129,2.895,5.25,4.611,8.538,5.039
		c3.289,0.428,6.745-0.431,9.545-2.684l24.522-19.743l24.522-19.743c2.733-2.2,4.306-5.304,4.639-8.535
		c0.333-3.231-0.573-6.59-2.798-9.302l-62.747-68.533l-62.747-68.533c-1.886-2.297-4.445-3.781-7.194-4.351
		C619.786,188.703,616.848,189.047,614.205,190.405z" class="colorFFF svgShape colora0e19c"></path><path fill="#a0e19c" d="M440.796,223.335c3.477,29.857-5.477,58.297-22.764,80.142c-17.287,21.845-42.908,37.095-72.765,40.572
		c-29.857,3.477-58.297-5.477-80.142-22.764c-21.845-17.287-37.095-42.908-40.572-72.765c-3.477-29.857,5.477-58.297,22.764-80.142
		s42.909-37.095,72.766-40.572c29.857-3.477,58.297,5.477,80.142,22.764C422.068,167.857,437.318,193.478,440.796,223.335z" class="colorFFF svgShape colora0e19c"></path><path fill="#50C44A" d="M625.469,182.736l-193.597,107.19l-193.597,107.19c-2.766,1.422-5.844,1.729-8.688,1.053
		s-5.454-2.336-7.284-4.851l-45.536-47.262l-45.536-47.262c-1.935-2.658-4.727-4.351-7.738-4.95s-6.239-0.106-9.045,1.607
		l-23.571,14.398l-23.571,14.398c-3.02,1.845-4.987,4.751-5.721,7.941c-0.734,3.19-0.235,6.663,1.676,9.642l65.878,87.356
		l65.878,87.356c1.713,2.671,4.285,4.499,7.146,5.319c2.861,0.82,6.01,0.633,8.878-0.725l78.244-37.046l78.244-37.046
		c2.916-1.381,6.118-1.55,9.011-0.687c2.893,0.864,5.478,2.761,7.16,5.514l28.322,51.125l28.322,51.125
		c1.78,2.913,2.239,6.27,1.539,9.365c-0.7,3.094-2.561,5.926-5.421,7.789l-76.946,55.669l-76.946,55.669
		c-2.617,1.705-4.414,4.238-5.232,7.055c-0.818,2.818-0.658,5.919,0.639,8.76l39.618,86.793l39.618,86.793
		c0.809,1.773,1.186,3.684,1.135,5.583c-0.051,1.899-0.531,3.786-1.436,5.513l-10.236,19.544l-10.236,19.544
		c-2.352,4.491-1.71,9.382,0.779,13.004c2.489,3.622,6.825,5.974,11.861,5.388l61.013-7.106l61.013-7.106
		c4.298-0.5,7.712-3.04,9.586-6.431c1.874-3.391,2.208-7.633,0.346-11.538l-39.487-82.797l-39.487-82.797
		c-1.344-2.818-1.556-5.915-0.787-8.745c0.77-2.83,2.522-5.393,5.108-7.142l65.027-46.387l65.027-46.387
		c2.829-1.913,6.163-2.528,9.287-1.97s6.04,2.287,8.033,5.06l50.334,65.879l50.334,65.879c1.857,2.585,4.531,4.276,7.44,4.94
		c2.909,0.664,6.052,0.301,8.847-1.221l84.164-47.63l84.164-47.63c1.135-0.618,2.351-1.055,3.605-1.301
		c1.254-0.246,2.545-0.302,3.829-0.159l30.442,3.389l30.442,3.389c5.379,0.599,9.862-2.105,12.231-6.071
		c2.369-3.966,2.624-9.196-0.453-13.648l-31.176-45.105l-31.176-45.105c-1.787-2.585-4.389-4.316-7.248-5.049
		c-2.858-0.733-5.972-0.468-8.783,0.939l-67.984,35.622l-67.984,35.622c-2.907,1.455-6.13,1.687-9.057,0.866
		c-2.927-0.821-5.559-2.695-7.286-5.45l-82.498-128.426l-82.498-128.426c-1.934-3.086-2.365-6.669-1.511-9.913
		s2.991-6.151,6.194-7.886l45.449-29.474l45.449-29.474c2.77-1.501,5.882-1.865,8.768-1.219c2.886,0.646,5.545,2.302,7.412,4.84
		l31.156,36.283l31.156,36.283c2.129,2.895,5.25,4.611,8.539,5.039c3.289,0.428,6.745-0.431,9.544-2.684l24.522-19.743
		l24.522-19.743c2.733-2.2,4.306-5.304,4.639-8.535c0.333-3.231-0.573-6.59-2.799-9.302l-62.747-68.533l-62.747-68.533
		c-1.886-2.297-4.445-3.781-7.194-4.351C631.05,181.034,628.112,181.378,625.469,182.736z" class="color135500 svgShape color41a03c"></path><path fill="#50C44A" d="M452.059,215.666c3.477,29.857-5.477,58.297-22.764,80.142c-17.287,21.845-42.909,37.095-72.766,40.572
		c-29.857,3.477-58.297-5.477-80.142-22.764s-37.095-42.909-40.572-72.766c-3.477-29.857,5.477-58.297,22.764-80.142
		c17.287-21.845,42.908-37.095,72.765-40.572c29.857-3.477,58.297,5.477,80.142,22.764
		C433.332,160.188,448.582,185.809,452.059,215.666z" class="color135500 svgShape color41a03c"></path><path fill="#a0e19c" d="M848.934,302.697l-94.02,72.436l-94.02,72.436c-3.378,2.602-5.416,6.31-5.987,10.232
			c-0.57,3.922,0.328,8.057,2.824,11.513l38.422,53.194l38.422,53.194c2.602,3.603,6.435,5.776,10.5,6.374s8.361-0.381,11.89-3.083
			l97.201-74.409l97.201-74.409c3.531-2.703,5.598-6.598,6.08-10.68c0.482-4.082-0.619-8.351-3.423-11.803L912.42,356.47
			l-41.602-51.221c-2.698-3.322-6.474-5.266-10.423-5.726C856.446,299.063,852.324,300.085,848.934,302.697z" class="colorFFF svgShape colora0e19c"></path><path fill="#50C44A" d="M747.429,589.43c-0.564,0-1.129-0.021-1.697-0.063s-1.136-0.104-1.706-0.188
			c-3.094-0.455-5.997-1.507-8.584-3.078s-4.858-3.662-6.688-6.198l-38.421-53.193l-38.421-53.193
			c-3.654-5.06-4.977-11.064-4.149-16.756c0.828-5.692,3.805-11.07,8.75-14.88l94.02-72.436l94.02-72.436
			c4.97-3.827,10.951-5.335,16.679-4.667c5.728,0.667,11.204,3.509,15.162,8.38l41.602,51.221l41.602,51.221
			c1.972,2.429,3.4,5.168,4.243,8.077c0.843,2.908,1.102,5.987,0.734,9.094c-0.367,3.108-1.336,6.042-2.835,8.674
			s-3.526,4.963-6.012,6.865l-97.2,74.41l-97.2,74.41c-2.027,1.552-4.25,2.735-6.592,3.531
			C752.393,589.022,749.932,589.43,747.429,589.43z M858.577,306.578c-0.917,0-1.838,0.148-2.727,0.448s-1.746,0.752-2.535,1.36l0,0
			l0,0l-94.02,72.436l-94.02,72.436c-1.853,1.427-2.968,3.442-3.278,5.575s0.186,4.382,1.555,6.278l38.421,53.194l38.421,53.194
			c0.685,0.95,1.536,1.734,2.505,2.322c0.969,0.589,2.057,0.982,3.216,1.153c1.153,0.17,2.309,0.106,3.409-0.178
			c1.1-0.284,2.144-0.79,3.075-1.503l97.2-74.409l97.2-74.409c0.931-0.713,1.691-1.586,2.252-2.573s0.924-2.086,1.061-3.251
			c0.137-1.164,0.041-2.317-0.275-3.407s-0.851-2.116-1.59-3.025l-41.602-51.221l-41.602-51.221
			c-0.854-1.052-1.897-1.852-3.04-2.389C861.065,306.851,859.824,306.578,858.577,306.578z" class="color135500 svgShape color41a03c"></path><path fill="#50C44A" d="M869.159,317.516L782.3,384.435l-86.859,66.919c-3.12,2.404-5.004,5.83-5.53,9.453
		s0.303,7.443,2.609,10.636l30.718,45.362l30.718,45.362c2.404,3.329,5.945,5.337,9.7,5.889c3.755,0.552,7.724-0.352,10.984-2.848
		l89.797-68.742l89.797-68.742c3.263-2.498,5.172-6.096,5.617-9.867s-0.572-7.715-3.162-10.904l-33.656-43.539l-33.656-43.539
		c-2.493-3.069-5.981-4.865-9.629-5.29S872.291,315.104,869.159,317.516z" class="color66b866 svgShape color41a03c"></path><path fill="#50C44A" d="M700.433 419.769c-1.113 0-2.218-.258-3.22-.758-1.002-.501-1.901-1.244-2.604-2.215l-15.056-20.817-15.056-20.817c-1.139-1.576-1.548-3.463-1.285-5.252.263-1.788 1.197-3.478 2.742-4.659l49.258-37.656 49.258-37.656c.766-.585 1.633-1.005 2.547-1.244.914-.239 1.873-.298 2.823-.161.954.136 1.86.46 2.671.944.81.484 1.525 1.127 2.097 1.901l15.535 21.059 15.535 21.059c1.176 1.596 1.596 3.517 1.322 5.334-.274 1.817-1.241 3.529-2.838 4.706-1.595 1.177-3.515 1.596-5.332 1.322-1.816-.274-3.529-1.241-4.707-2.836l-13.367-18.121-13.367-18.121-43.579 33.315-43.579 33.315 13.007 17.985 13.007 17.985c1.163 1.606 1.563 3.532 1.272 5.346-.291 1.814-1.275 3.517-2.88 4.679-.636.46-1.322.801-2.032 1.027S701.162 419.769 700.433 419.769zM700.792 536.103c-1.09 0-2.174-.247-3.161-.729-.988-.482-1.879-1.199-2.585-2.138-1.19-1.585-1.626-3.502-1.369-5.321.258-1.819 1.21-3.54 2.795-4.731l109.19-82.074 109.19-82.074c1.586-1.193 3.504-1.629 5.323-1.371 1.82.258 3.54 1.211 4.73 2.796 1.19 1.585 1.627 3.502 1.369 5.321-.258 1.819-1.21 3.54-2.795 4.731l-109.19 82.074-109.19 82.074c-.647.486-1.349.847-2.076 1.086C702.295 535.985 701.542 536.103 700.792 536.103z" class="color135500 svgShape color41a03c"></path><path fill="#50C44A" d="M846.13 439.673c-1.03 0-2.056-.22-3.002-.654-.946-.434-1.812-1.081-2.522-1.934l-9.172-11.027-9.172-11.027c-1.268-1.525-1.797-3.419-1.629-5.248s1.034-3.595 2.558-4.863c1.527-1.268 3.421-1.797 5.251-1.628 1.83.168 3.594 1.034 4.862 2.556l9.172 11.027 9.172 11.027c1.268 1.525 1.797 3.419 1.629 5.248-.168 1.83-1.034 3.595-2.558 4.863-.672.558-1.414.973-2.191 1.248C847.75 439.537 846.939 439.673 846.13 439.673zM796.253 479.817c-1.03 0-2.056-.22-3.002-.654-.946-.434-1.812-1.081-2.522-1.934l-9.172-11.028-9.172-11.028c-1.268-1.525-1.797-3.419-1.629-5.248.168-1.83 1.034-3.595 2.558-4.863 1.528-1.267 3.423-1.796 5.252-1.628 1.829.168 3.593 1.033 4.861 2.556l9.172 11.028 9.172 11.028c1.268 1.525 1.797 3.419 1.629 5.248s-1.034 3.595-2.558 4.863c-.672.558-1.414.973-2.191 1.248C797.873 479.681 797.062 479.817 796.253 479.817zM968.628 857.279c-2.152 0-4.158-.805-5.692-2.157-1.534-1.352-2.594-3.251-2.855-5.441-.281-2.363.422-4.616 1.786-6.348s3.389-2.944 5.751-3.225c11.928-1.42 24.011-3.082 36.071-4.847s24.096-3.636 35.93-5.475c10.619-1.65 21.418-3.329 32.255-4.935 10.837-1.606 21.711-3.141 32.48-4.502 2.364-.296 4.621.389 6.362 1.74 1.741 1.35 2.966 3.365 3.266 5.727.298 2.361-.388 4.619-1.739 6.361-1.351 1.742-3.366 2.969-5.727 3.267-10.647 1.346-21.43 2.868-32.191 4.464-10.761 1.596-21.501 3.265-32.059 4.906-11.91 1.851-24.021 3.734-36.176 5.513-12.155 1.779-24.352 3.455-36.433 4.893-.173.021-.345.036-.516.047C968.969 857.274 968.798 857.279 968.628 857.279zM634.482 905.882c-2.104 0-4.077-.773-5.602-2.082s-2.601-3.154-2.911-5.3c-.341-2.354.304-4.624 1.623-6.391 1.319-1.767 3.312-3.03 5.667-3.371 16.197-2.347 32.419-4.813 48.52-7.317 16.101-2.504 32.08-5.046 47.791-7.546 30.276-4.816 61.066-9.715 92.107-14.235s62.333-8.663 93.61-11.968c2.351-.245 4.595.488 6.313 1.873s2.911 3.423 3.161 5.789c.25 2.365-.482 4.609-1.869 6.323-1.387 1.714-3.428 2.9-5.795 3.149-31.052 3.281-62.174 7.403-93.074 11.904-30.9 4.501-61.579 9.382-91.745 14.181-15.74 2.504-31.749 5.051-47.886 7.561s-32.405 4.983-48.662 7.339c-.208.03-.417.052-.625.067C634.896 905.875 634.688 905.882 634.482 905.882zM530.637 920.568c-2.131 0-4.121-.79-5.651-2.123-1.529-1.333-2.597-3.208-2.881-5.378-.307-2.359.371-4.62 1.715-6.368 1.344-1.748 3.355-2.983 5.714-3.291 8.995-1.175 18.143-2.4 27.577-3.694 9.434-1.294 19.155-2.656 29.293-4.105 2.365-.341 4.634.309 6.396 1.633 1.762 1.324 3.016 3.322 3.353 5.676.337 2.355-.313 4.624-1.636 6.388-1.323 1.764-3.318 3.024-5.673 3.36-10.174 1.454-19.929 2.822-29.398 4.12s-18.652 2.528-27.682 3.707c-.188.025-.377.043-.565.056C531.011 920.562 530.823 920.568 530.637 920.568z" class="color135500 svgShape color41a03c"></path><path fill="#50C44A" d="M826.461 913.909c-2.107 0-4.082-.773-5.607-2.083-1.525-1.31-2.6-3.156-2.909-5.302-.341-2.354.305-4.624 1.625-6.39 1.32-1.766 3.314-3.029 5.668-3.369l17.455-2.522 17.455-2.522c2.375-.344 4.645.303 6.406 1.625 1.761 1.321 3.013 3.317 3.351 5.67.341 2.354-.305 4.624-1.625 6.39-1.32 1.766-3.314 3.029-5.668 3.369l-17.455 2.522-17.455 2.522c-.208.03-.417.052-.624.067C826.871 913.902 826.665 913.909 826.461 913.909zM522.136 958.805c-2.107 0-4.081-.773-5.606-2.082-1.525-1.309-2.6-3.155-2.91-5.3-.341-2.355.305-4.625 1.625-6.391 1.32-1.766 3.314-3.029 5.668-3.369 16.632-2.405 33.483-4.918 50.303-7.462s33.609-5.121 50.118-7.654c25.178-3.864 50.784-7.794 76.316-11.581s50.99-7.431 75.871-10.725c2.35-.316 4.612.357 6.364 1.699 1.752 1.342 2.995 3.352 3.307 5.711.312 2.358-.361 4.62-1.702 6.37s-3.349 2.989-5.708 3.301c-24.793 3.282-50.185 6.918-75.662 10.697-25.477 3.779-51.039 7.702-76.174 11.558-16.526 2.537-33.333 5.116-50.176 7.664s-33.722 5.065-50.393 7.475c-.208.03-.417.052-.624.067C522.546 958.798 522.34 958.805 522.136 958.805zM393.811 976.427c-2.146 0-4.148-.801-5.68-2.148-1.532-1.347-2.594-3.24-2.861-5.424-.287-2.361.409-4.616 1.768-6.353 1.359-1.737 3.38-2.955 5.742-3.244 12.021-1.469 24.366-3.042 37.219-4.742 12.852-1.701 26.211-3.529 40.257-5.509 2.359-.327 4.625.327 6.386 1.651 1.76 1.325 3.014 3.321 3.347 5.677.332 2.356-.323 4.624-1.649 6.385-1.327 1.762-3.325 3.017-5.681 3.349-14.097 1.987-27.507 3.822-40.412 5.53-12.905 1.707-25.304 3.287-37.378 4.762-.176.022-.353.038-.529.049C394.162 976.422 393.986 976.427 393.811 976.427z" class="color66b866 svgShape color41a03c"></path><path fill="#50C44A" d="M960.452 680.095c-2.109 0-4.084-.774-5.61-2.085-1.525-1.311-2.601-3.159-2.909-5.307-.338-2.354.31-4.624 1.632-6.389 1.322-1.765 3.316-3.026 5.671-3.364l17.934-2.575 17.934-2.575c2.384-.337 4.653.312 6.411 1.634s3.005 3.317 3.343 5.67c.338 2.354-.31 4.624-1.632 6.389-1.322 1.765-3.316 3.026-5.671 3.364l-17.934 2.575-17.934 2.575c-.208.029-.416.051-.622.066S960.654 680.095 960.452 680.095zM1031.656 669.87c-2.107 0-4.082-.774-5.607-2.085s-2.6-3.159-2.909-5.307c-.338-2.355.31-4.624 1.632-6.389 1.322-1.765 3.317-3.025 5.673-3.364l54.856-7.877 54.856-7.877c2.368-.341 4.638.308 6.4 1.63 1.762 1.323 3.016 3.319 3.354 5.674.338 2.354-.31 4.624-1.632 6.389-1.322 1.765-3.316 3.026-5.671 3.364l-54.859 7.877-54.859 7.877c-.207.029-.414.051-.62.066C1032.065 669.862 1031.86 669.87 1031.656 669.87zM620.222 983.101c-2.101 0-4.071-.769-5.595-2.073-1.524-1.304-2.602-3.142-2.918-5.281-.349-2.354.289-4.625 1.603-6.396s3.303-3.04 5.656-3.389l26.45-3.919 26.45-3.919c2.387-.35 4.659.29 6.422 1.604s3.016 3.304 3.363 5.655c.349 2.354-.289 4.625-1.603 6.396s-3.303 3.04-5.656 3.389l-26.45 3.919-26.45 3.919c-.215.032-.428.055-.641.071C620.641 983.094 620.431 983.101 620.222 983.101zM725.244 967.539c-2.101 0-4.071-.769-5.595-2.073-1.524-1.304-2.601-3.142-2.918-5.281-.349-2.354.289-4.625 1.603-6.396s3.303-3.04 5.656-3.389l80.906-11.988 80.906-11.988c2.382-.35 4.655.289 6.419 1.604 1.764 1.315 3.019 3.305 3.366 5.655.349 2.354-.289 4.625-1.603 6.396-1.314 1.771-3.303 3.04-5.656 3.389l-80.906 11.988-80.906 11.988c-.215.032-.428.055-.64.071S725.454 967.539 725.244 967.539z" class="color135500 svgShape color41a03c"></path><path fill="#50C44A" d="M737.311 781.806c-2.109 0-4.084-.774-5.61-2.085-1.525-1.311-2.601-3.159-2.909-5.307-.338-2.355.31-4.624 1.632-6.389 1.322-1.765 3.317-3.025 5.673-3.364l74.886-10.753 74.886-10.753c2.379-.337 4.648.312 6.407 1.634 1.759 1.322 3.008 3.317 3.348 5.67.338 2.355-.31 4.624-1.632 6.389-1.322 1.765-3.316 3.025-5.671 3.364l-74.889 10.753-74.889 10.753c-.207.029-.414.051-.62.066C737.717 781.799 737.513 781.806 737.311 781.806zM926.415 754.652c-2.109 0-4.084-.774-5.61-2.085-1.525-1.311-2.601-3.159-2.909-5.305-.338-2.355.31-4.624 1.632-6.389 1.322-1.765 3.316-3.026 5.671-3.365l19.987-2.87 19.987-2.87c2.371-.33 4.641.319 6.402 1.638 1.761 1.32 3.014 3.31 3.352 5.666.338 2.355-.31 4.624-1.632 6.389-1.322 1.765-3.316 3.025-5.671 3.364l-19.987 2.87-19.987 2.87c-.208.029-.415.051-.621.066C926.824 754.645 926.619 754.652 926.415 754.652zM924.896 619.937c-2.107 0-4.082-.774-5.607-2.085-1.525-1.311-2.6-3.159-2.909-5.307-.338-2.354.31-4.624 1.632-6.389 1.322-1.765 3.316-3.026 5.671-3.364l52.716-7.57 52.716-7.57c2.373-.331 4.642.317 6.403 1.637 1.761 1.32 3.013 3.312 3.351 5.667.338 2.354-.31 4.624-1.632 6.389-1.322 1.765-3.316 3.026-5.671 3.364l-52.716 7.57-52.716 7.57c-.208.029-.416.051-.623.066C925.305 619.93 925.1 619.937 924.896 619.937z" class="color66b866 svgShape color41a03c"></path></svg></svg></g></svg>