<?xml version="1.0" standalone="no"?>
<!DOCTYPE svg PUBLIC "-//W3C//DTD SVG 1.0//EN" "http://www.w3.org/TR/2001/REC-SVG-20010904/DTD/svg10.dtd">
<svg xmlns="http://www.w3.org/2000/svg" xmlns:xlink="http://www.w3.org/1999/xlink" id="body_1" width="57" height="43">

<g transform="matrix(0.17014925 0 0 0.17063493 0 0)">
	<g transform="matrix(0.51937985 0 0 0.52066123 0 0)">
        <path d="M0 0L1024 0L1024 768L0 768L0 0z" stroke="none" fill="none" />
		<g>
			<g>
				<g>
                    <path d="M531.5341 361.64487C 528.0654 328.51508 500.45325 302.50006 467.37186 302.50006C 446.68088 302.50006 427.16757 312.87378 415.1079 329.94284C 412.75244 329.53146 410.36472 329.32977 407.977 329.32977C 389.26233 329.32977 372.6369 342.05093 367.11127 360.08798C 351.72003 369.2114 341.96744 386.23206 341.96744 404.47888C 341.96744 432.76062 364.4331 455.76675 392.0453 455.76675L392.0453 455.76675L478.9556 455.76675C 479.4638 455.76675 479.95587 455.73447 480.34308 455.7022C 480.8432 455.7345 481.34335 455.76675 481.85962 455.76675L481.85962 455.76675L516.62695 455.76675C 542.64197 455.76675 563.8089 434.0916 563.8089 407.45547C 563.8008 386.48212 550.5553 368.1466 531.5341 361.64487zM516.61884 439.6334L481.52078 439.6092L480.0204 439.5608L392.0453 439.6334C 373.33063 439.6334 358.10077 423.86307 358.10077 404.47888C 358.10077 391.0398 365.74796 378.58487 377.5979 372.7365L377.5979 372.7365L381.1069 371.01022L381.92972 367.1786C 384.5998 354.59457 395.5543 345.4631 407.977 345.4631C 410.75192 345.4631 413.5188 345.92288 416.19693 346.82635L416.19693 346.82635L422.46472 348.93176L425.764 343.19638C 434.60507 327.82132 450.14954 318.6334 467.3719 318.6334C 493.70956 318.6334 515.40894 340.7925 515.76385 368.0256L515.76385 368.0256L515.8526 374.5838L522.29785 375.83414C 536.99524 378.69778 547.6675 391.99167 547.6675 407.45547C 547.6675 425.19406 533.7363 439.6334 516.61884 439.6334z" stroke="none" fill="#009900" fill-rule="nonzero" fill-opacity="0.6392157" />
                    <path d="M404.2663 305.23465C 420.93204 288.07684 443.74457 278.30005 467.37183 278.30005C 501.9375 278.30005 533.22003 299.38632 547.6675 330.4591L547.6675 330.4591L547.6675 36.300007C 547.6675 31.839138 544.0536 28.233337 539.60077 28.233337L539.60077 28.233337L87.867386 28.233337C 83.41458 28.233337 79.80071 31.839138 79.80071 36.300007L79.80071 36.300007L79.80071 391.2334C 79.80071 395.69427 83.41458 399.30008 87.867386 399.30008L87.867386 399.30008L318.0659 399.30008C 319.55823 377.73785 330.12555 357.6115 347.2753 344.358C 357.8023 321.61 379.7033 306.61404 404.2663 305.23465zM208.8674 92.766685C 233.64014 92.766685 253.79068 112.91722 253.79068 137.68996C 253.79068 162.45462 233.64015 182.60518 208.8674 182.60518C 184.09465 182.60518 163.94412 162.45464 163.94412 137.68996C 163.94412 112.91722 184.09467 92.766685 208.8674 92.766685zM273.191 208.83797L141.59946 324.69147C 140.06679 326.03857 138.16306 326.70004 136.2674 326.70004C 134.03293 326.70004 131.80652 325.78046 130.20932 323.96545C 127.26499 320.6178 127.58766 315.51965 130.93532 312.57532L130.93532 312.57532L268.2058 191.7205C 271.4002 188.9133 276.2241 189.06656 279.24103 192.07542L279.24103 192.07542L317.50122 230.33563L396.50616 143.80449C 397.9501 142.22342 399.9668 141.27962 402.10443 141.18282C 404.23404 141.13441 406.33136 141.85236 407.91245 143.29628L407.91245 143.29628L504.71246 232.02962C 507.99564 235.03848 508.2215 240.1447 505.21262 243.42783C 502.20374 246.7029 497.09753 246.93683 493.81442 243.92796L493.81442 243.92796L402.97565 160.63963L328.91556 241.7419L367.69202 280.51837C 370.84607 283.67242 370.84607 288.77057 367.69202 291.92465C 364.53796 295.0787 359.43982 295.0787 356.28574 291.92465L356.28574 291.92465L273.191 208.83797z" stroke="none" fill="#009900" fill-rule="nonzero" fill-opacity="0.6392157" />
				</g>
				<g>
				</g>
				<g>
				</g>
				<g>
				</g>
				<g>
				</g>
				<g>
				</g>
				<g>
				</g>
				<g>
				</g>
				<g>
				</g>
				<g>
				</g>
				<g>
				</g>
				<g>
				</g>
				<g>
				</g>
				<g>
				</g>
				<g>
				</g>
				<g>
				</g>
			</g>
		</g>
	</g>
</g>
</svg>