<svg data-v-423bf9ae="" xmlns="http://www.w3.org/2000/svg" viewBox="0 0 475 90" class="iconLeft"><!----><!----><!----><g data-v-423bf9ae="" id="44331477-555a-4960-94bb-bc5e9fe46d9f" fill="#000000" transform="matrix(4.803843162490988,0,0,4.803843162490988,106.01281288260739,-2.2938363573488516)"><path d="M9.10 8.89C9.10 5.92 7.57 4.20 4.98 4.20C2.25 4.20 0.83 6.13 0.83 9.00C0.83 11.73 2.11 13.73 4.70 13.83L5.08 14.20C5.85 14.87 6.99 16.09 8.58 16.09C8.83 16.09 9.11 16.07 9.39 16.03L9.63 14.99C9.38 15.05 9.14 15.06 8.90 15.06C7.70 15.06 6.80 14.32 6.16 13.68C8.09 13.15 9.10 11.30 9.10 8.89ZM4.91 12.84C3.29 12.84 2.17 11.79 2.17 9.06C2.17 6.38 3.25 5.21 4.98 5.21C6.68 5.21 7.76 6.33 7.76 8.96C7.76 11.59 6.68 12.84 4.91 12.84ZM10.85 11.89C10.85 13.26 11.65 13.85 12.77 13.85C14.24 13.85 14.87 12.95 15.11 12.47L15.16 13.65L16.18 13.65L16.18 7.22L15.06 7.22L15.06 10.85C14.87 11.54 14.31 12.88 12.95 12.88C12.28 12.88 11.97 12.52 11.97 11.56L11.97 7.22L10.85 7.22ZM18.13 5.00C18.13 5.43 18.45 5.75 18.89 5.75C19.31 5.75 19.64 5.43 19.64 5.00C19.64 4.58 19.31 4.24 18.89 4.24C18.45 4.24 18.13 4.58 18.13 5.00ZM18.34 13.65L19.46 13.65L19.46 7.22L18.34 7.22ZM25.56 11.82C25.42 12.43 24.89 12.92 24.02 12.92C23.13 12.92 22.43 12.24 22.43 10.44C22.43 9.17 22.81 7.95 24.09 7.95C24.89 7.95 25.47 8.22 25.40 9.24L26.52 9.04C26.66 7.73 25.61 7.03 24.09 7.03C22.58 7.03 21.22 7.87 21.22 10.42C21.22 12.57 22.20 13.85 24.01 13.85C25.47 13.85 26.24 13.13 26.56 12.01ZM32.09 13.65L33.53 13.65L30.66 10.12L33.57 7.22L32.13 7.22L29.62 9.72L29.34 9.72L29.34 3.60L28.22 3.60L28.22 13.65L29.34 13.65L29.34 10.61L29.65 10.61ZM34.54 11.12C34.44 12.42 35.50 13.85 37.69 13.85C39.84 13.85 40.96 12.67 40.96 11.23C40.96 8.01 36.04 9.02 36.04 6.52C36.04 5.70 36.65 5.21 37.69 5.21C38.98 5.21 39.63 5.80 39.68 6.93L40.85 6.68C40.92 5.22 39.66 4.20 37.74 4.20C35.91 4.20 34.79 5.17 34.79 6.66C34.79 10.18 39.72 9.09 39.72 11.42C39.72 12.32 38.89 12.84 37.72 12.84C36.58 12.84 35.73 12.25 35.71 10.86ZM47.99 13.75L48.22 12.77C47.36 12.92 47.42 12.42 47.42 11.91L47.42 9.37C47.42 7.74 46.75 7.03 45.09 7.03C43.23 7.03 42.38 7.81 42.53 9.04L43.64 9.24C43.57 8.29 44.14 7.95 45.01 7.95C46.00 7.95 46.30 8.41 46.30 9.52L46.30 9.88C43.88 9.90 42.31 10.64 42.31 12.11C42.31 13.29 43.30 13.85 44.34 13.85C45.35 13.85 46.10 13.29 46.41 12.71C46.45 13.30 46.77 13.90 47.99 13.75ZM46.30 11.42C46.24 12.25 45.40 12.92 44.55 12.92C43.89 12.92 43.51 12.57 43.51 12.03C43.51 11.20 44.32 10.75 46.30 10.74ZM48.93 8.12L50.02 8.12L50.02 11.76C50.02 12.78 50.33 13.79 51.60 13.79C52.57 13.79 53.02 13.22 53.31 12.50L52.46 12.12C52.32 12.63 52.09 12.87 51.74 12.87C51.30 12.87 51.14 12.50 51.14 11.70L51.14 8.12L52.96 8.12L52.96 7.22L51.14 7.22L51.14 5.32L50.12 5.32L50.05 7.22L48.93 7.22ZM58.60 11.82C58.46 12.43 57.93 12.92 57.06 12.92C56.17 12.92 55.47 12.24 55.47 10.44C55.47 9.17 55.85 7.95 57.13 7.95C57.93 7.95 58.51 8.22 58.44 9.24L59.56 9.04C59.70 7.73 58.65 7.03 57.13 7.03C55.62 7.03 54.26 7.87 54.26 10.42C54.26 12.57 55.24 13.85 57.05 13.85C58.51 13.85 59.28 13.13 59.60 12.01ZM65.48 13.65L66.60 13.65L66.60 9.00C66.60 7.63 65.74 7.03 64.65 7.03C63.24 7.03 62.61 7.92 62.38 8.40L62.38 3.60L61.26 3.60L61.26 13.65L62.38 13.65L62.38 10.22C62.51 9.65 63.03 7.99 64.47 7.99C65.14 7.99 65.48 8.36 65.48 9.32ZM73.88 10.61L73.88 9.91C73.88 7.95 72.97 7.03 71.27 7.03C69.03 7.03 68.31 8.75 68.31 10.47C68.31 12.78 69.40 13.85 71.30 13.85C72.72 13.85 73.56 13.16 73.88 12.01L72.90 11.82C72.72 12.40 72.17 12.92 71.33 12.92C69.86 12.92 69.52 11.80 69.51 10.61ZM71.25 7.95C72.25 7.95 72.72 8.61 72.72 9.46L72.72 9.72L69.55 9.72C69.72 8.50 70.35 7.95 71.25 7.95ZM75.66 13.65L76.78 13.65L76.78 3.60L75.66 3.60Z"></path></g><defs data-v-423bf9ae=""><linearGradient data-v-423bf9ae="" gradientTransform="rotate(25)" id="e8ed8004-a7a9-4f04-9ceb-72c5e325fb6e" x1="0%" y1="0%" x2="100%" y2="0%"><stop data-v-423bf9ae="" offset="0%" style="stop-color: rgb(148, 80, 105); stop-opacity: 1;"></stop><stop data-v-423bf9ae="" offset="100%" style="stop-color: rgb(134, 200, 102); stop-opacity: 1;"></stop></linearGradient></defs><g data-v-423bf9ae="" id="97cc725a-8e42-463c-a350-8729380bb39e" transform="matrix(2.8125,0,0,2.8125,0,0)" stroke="none" fill="url(#e8ed8004-a7a9-4f04-9ceb-72c5e325fb6e)"><path d="M32 0H0v32h32V0zm-8.677 20.802l-2.52 2.52L16 28.125l-2.52-2.52 4.802-4.802L16 18.52l-4.802 4.802-2.52-2.52L13.48 16l-2.282-2.282-4.803 4.802L3.875 16l4.802-4.802 2.52-2.52L16 3.875l2.52 2.52-4.802 4.802L16 13.48l4.802-4.802 2.52 2.52L18.52 16l2.282 2.282 4.802-4.802 2.52 2.52-4.801 4.802z"></path></g><!----></svg>