<?xml version="1.0" encoding="iso-8859-1"?>
<!-- Generator: Adobe Illustrator 19.0.0, SVG Export Plug-In . SVG Version: 6.00 Build 0)  -->
<svg version="1.1" id="Layer_1" xmlns="http://www.w3.org/2000/svg" xmlns:xlink="http://www.w3.org/1999/xlink" x="0px" y="0px"
	 viewBox="0 0 512 512" style="enable-background:new 0 0 512 512;" xml:space="preserve">
<g>
	<path style="fill:#8AD5DD;" d="M268.672,48.04l159.416,92.04c0.76-7.112,4.352-13.312,9.704-17.488L280.896,32.008
		C279.168,38.896,274.688,44.616,268.672,48.04z"/>
	<path style="fill:#8AD5DD;" d="M83.912,140.08l159.416-92.032c-6.016-3.432-10.496-9.152-12.232-16.032L74.208,122.592
		C79.56,126.768,83.152,132.968,83.912,140.08z"/>
	<path style="fill:#8AD5DD;" d="M453.568,168.56c-3.544,0-6.928-0.72-10-2.016v179.72c3.072-1.296,6.456-2.016,10-2.016
		s6.928,0.72,10,2.016v-179.72C460.488,167.84,457.112,168.56,453.568,168.56z"/>
	<path style="fill:#8AD5DD;" d="M241.112,465.296L83.744,374.44c-1.216,6.984-5.192,13.008-10.824,16.848l157.72,91.056
		C231.72,475.32,235.568,469.248,241.112,465.296z"/>
	<path style="fill:#8AD5DD;" d="M68.432,346.264v-179.72c-3.072,1.296-6.448,2.016-10,2.016s-6.928-0.72-10-2.016v179.728
		c3.072-1.296,6.456-2.016,10-2.016C61.984,344.248,65.36,344.968,68.432,346.264z"/>
	<path style="fill:#8AD5DD;" d="M428.256,374.44l-157.368,90.856c5.544,3.952,9.392,10.024,10.472,17.048l157.72-91.064
		C433.448,387.448,429.48,381.424,428.256,374.44z"/>
	<path style="fill:#8AD5DD;" d="M147.92,194.904V319.72L256,382.112l108.088-62.4V194.904L256,132.504L147.92,194.904z
		 M356.088,315.088L256,372.88l-100.08-57.792v-115.56L256,141.736l100.088,57.792V315.088z"/>
</g>
<g>
	<path style="fill:#DB2B42;" d="M443.568,346.264c-9.256,3.904-15.752,13.064-15.752,23.736c0,1.52,0.192,2.992,0.448,4.44
		c1.216,6.984,5.192,13.008,10.824,16.848c4.128,2.816,9.112,4.472,14.48,4.472c14.224,0,25.752-11.528,25.752-25.752
		c0-10.672-6.496-19.832-15.752-23.736c-3.072-1.296-6.456-2.016-10-2.016C450.016,344.248,446.64,344.968,443.568,346.264z"/>
	<path style="fill:#DB2B42;" d="M68.432,166.544c9.256-3.904,15.752-13.056,15.752-23.736c0-0.936-0.176-1.816-0.272-2.728
		c-0.76-7.112-4.36-13.312-9.704-17.488c-4.368-3.416-9.8-5.536-15.776-5.536c-14.224,0-25.752,11.528-25.752,25.752
		c0,10.672,6.496,19.832,15.752,23.736c3.072,1.296,6.456,2.016,10,2.016C61.984,168.56,65.36,167.84,68.432,166.544z"/>
	<path style="fill:#DB2B42;" d="M428.088,140.08c-0.096,0.912-0.272,1.792-0.272,2.728c0,10.672,6.496,19.832,15.752,23.736
		c3.072,1.296,6.456,2.016,10,2.016s6.928-0.72,10-2.016c9.256-3.904,15.752-13.064,15.752-23.736
		c0-14.224-11.528-25.752-25.752-25.752c-5.976,0-11.408,2.12-15.776,5.536C432.44,126.768,428.848,132.968,428.088,140.08z"/>
	<path style="fill:#DB2B42;" d="M83.744,374.44c0.256-1.448,0.448-2.92,0.448-4.44c0-10.68-6.496-19.832-15.752-23.736
		c-3.072-1.296-6.448-2.016-10-2.016s-6.928,0.72-10,2.016c-9.256,3.904-15.752,13.064-15.752,23.736
		c0,14.224,11.528,25.752,25.752,25.752c5.376,0,10.352-1.656,14.48-4.464C78.552,387.448,82.52,381.424,83.744,374.44z"/>
	<circle style="fill:#DB2B42;" cx="256" cy="256" r="25.752"/>
	<path style="fill:#DB2B42;" d="M243.328,48.048c3.76,2.136,8.04,3.456,12.672,3.456c4.632,0,8.912-1.32,12.672-3.456
		c6.016-3.432,10.496-9.152,12.224-16.032c0.504-2.016,0.856-4.088,0.856-6.256C281.752,11.528,270.224,0,256,0
		c-14.224,0-25.752,11.528-25.752,25.752c0,2.168,0.352,4.248,0.856,6.256C232.832,38.896,237.312,44.616,243.328,48.048z"/>
	<path style="fill:#DB2B42;" d="M270.888,465.296c-4.208-3-9.328-4.8-14.888-4.8c-5.56,0-10.68,1.8-14.888,4.8
		c-5.544,3.944-9.392,10.024-10.472,17.048c-0.2,1.28-0.392,2.568-0.392,3.904C230.248,500.472,241.776,512,256,512
		c14.224,0,25.752-11.528,25.752-25.752c0-1.336-0.2-2.616-0.392-3.904C280.28,475.328,276.432,469.248,270.888,465.296z"/>
</g>
<g>
</g>
<g>
</g>
<g>
</g>
<g>
</g>
<g>
</g>
<g>
</g>
<g>
</g>
<g>
</g>
<g>
</g>
<g>
</g>
<g>
</g>
<g>
</g>
<g>
</g>
<g>
</g>
<g>
</g>
</svg>
