<?xml version="1.0" encoding="iso-8859-1"?>
<!-- Generator: Adobe Illustrator 18.0.0, SVG Export Plug-In . SVG Version: 6.00 Build 0)  -->
<!DOCTYPE svg PUBLIC "-//W3C//DTD SVG 1.1//EN" "http://www.w3.org/Graphics/SVG/1.1/DTD/svg11.dtd">
<svg version="1.1" id="Capa_1" xmlns="http://www.w3.org/2000/svg" xmlns:xlink="http://www.w3.org/1999/xlink" x="0px" y="0px"
	 viewBox="0 0 460 460" style="enable-background:new 0 0 460 460;" xml:space="preserve">
<g id="XMLID_1072_">
	<g id="XMLID_805_">
		<path id="XMLID_2192_" style="fill:#86C867;" d="M360.228,386.747L230,460L99.772,386.747c-27.804-15.639-45.01-45.06-45.01-76.96
			V21.905L230,0l175.238,21.905v287.882C405.238,341.687,388.032,371.107,360.228,386.747z"/>
	</g>
	<g id="XMLID_834_">
		<path id="XMLID_2191_" style="fill:#5E9B3E;" d="M335.565,357.061L230,416.442l-105.565-59.38
			c-22.538-12.678-36.486-36.526-36.486-62.385V54.762L230,37.006l142.051,17.756v239.915
			C372.051,320.535,358.103,344.384,335.565,357.061z"/>
	</g>
	<path id="XMLID_503_" style="opacity:0.7;fill:#D0D5D9;" d="M230,460l130.228-73.253c27.803-15.64,45.01-45.06,45.01-76.96V21.905
		L230,0v37.005l142.051,17.756v239.915c0,25.859-13.948,49.707-36.486,62.385L230,416.442V460z"/>
	<g id="XMLID_2772_">
		<path id="XMLID_9_" style="fill:#ECF0F1;" d="M230,98.571c-30.244,0-54.762,24.518-54.762,54.762
			c0,22.454,13.519,41.74,32.857,50.192V222.2h9.701c4.308,0,7.8,3.492,7.8,7.8s-3.492,7.8-7.8,7.8h-9.701v17.257h9.701
			c4.308,0,7.8,3.492,7.8,7.8c0,4.308-3.492,7.8-7.8,7.8h-9.701v17.257h9.701c4.308,0,7.8,3.492,7.8,7.8c0,4.308-3.492,7.8-7.8,7.8
			h-9.701v25.057L230,339.524l21.905-10.952V203.525c19.338-8.452,32.857-27.739,32.857-50.192
			C284.762,123.089,260.244,98.571,230,98.571z M230,157.167c-8.166,0-14.786-6.62-14.786-14.786c0-8.166,6.62-14.786,14.786-14.786
			s14.786,6.62,14.786,14.786C244.786,150.547,238.166,157.167,230,157.167z"/>
	</g>
</g>
<g>
</g>
<g>
</g>
<g>
</g>
<g>
</g>
<g>
</g>
<g>
</g>
<g>
</g>
<g>
</g>
<g>
</g>
<g>
</g>
<g>
</g>
<g>
</g>
<g>
</g>
<g>
</g>
<g>
</g>
</svg>
